<?xml version="1.0" encoding="utf-8"?>
<!-- Generator: Adobe Illustrator 16.0.0, SVG Export Plug-In . SVG Version: 6.00 Build 0)  -->
<!DOCTYPE svg PUBLIC "-//W3C//DTD SVG 1.1//EN" "http://www.w3.org/Graphics/SVG/1.1/DTD/svg11.dtd">
<svg version="1.1" id="Layer_1" xmlns="http://www.w3.org/2000/svg" xmlns:xlink="http://www.w3.org/1999/xlink" x="0px" y="0px"
width="276px" height="173.124px" viewBox="0 0 276 173.124" enable-background="new 0 0 276 173.124" xml:space="preserve">
<path fill="#58595B" d="M263.375,43.974c-5.852-2.639-11.944-4.813-18.111-6.591c-3.069-0.884-6.141-1.712-9.287-2.274
c-3.115-0.557-6.266-0.876-9.407-1.24c-6.341-0.734-12.511-2.008-18.571-4.033c-6.111-2.041-11.974-4.751-18.079-6.81
c-7.07-2.385-14.229-4.508-21.404-6.55c-1.056,6.953-1.919,13.891-2.365,20.915c-0.548,8.634-0.768,17.456,0.128,26.079l0.793,0.102
c1.903-5.083,3.347-10.376,4.61-15.652c1.647-6.875,3.036-13.834,3.978-20.842c6.348,1.369,12.694,2.762,19.13,3.655
c6.377,0.885,12.725,1.682,18.966,3.317c6.138,1.608,11.837,4.271,17.723,6.577c5.971,2.339,12.239,3.765,18.528,4.948
c6.218,1.126,12.559,2.083,18.894,2.045l0.203-0.774C267.222,45.775,265.304,44.853,263.375,43.974
C261.443,43.103,265.304,44.853,263.375,43.974z"/>
<path fill="#58595B" d="M260.9,125.174c-15.011-0.411-29.309,3.967-43.02,9.522c-14.188,5.749-30.091,6.09-44.977,9.215
c-3.736-11.595-8.489-23.324-14.85-33.761l-0.762,0.244c1.049,14.888,5.135,29.65,9.995,43.688
c14.501-4.025,28.291-10.572,42.824-14.228c8.609-2.204,17.595-1.903,26.186-4.253c8.486-2.32,17.174-5.193,24.802-9.653
L260.9,125.174z"/>
<path fill="#58595B" d="M249.413,167.834c-16.912-3.293-34.254-4.04-51.435-3.712c-14.146,0.271-28.348,2.584-42.479,1.199
c3.059-17.618,5.216-35.388,2.044-53.221l-0.799-0.051c-5.787,18.574-4.983,37.21-4.562,56.312
c15.297-1.084,30.38,2.258,45.582,3.402c19.187,1.443,38.97,1.711,57.973-1.802l0.021-0.799
C253.646,168.65,251.53,168.215,249.413,167.834C247.297,167.422,251.53,168.215,249.413,167.834z"/>
<path fill="#58595B" d="M157.958,109.127c-6.639,16.597-13.251,33.202-19.816,49.828c-8.71,2.021-17.411,4.068-26.104,6.16
c-33.176-11.845-66.35-23.693-99.572-35.408l-0.271,0.752c31.704,16.822,65.687,29.955,99.19,42.665
c10.999-2.18,21.786-4.89,32.447-8.38c5.937-18.037,12.066-36.492,14.87-55.326L157.958,109.127z"/>
<path fill="#58595B" d="M157.997,111.051c-7.702,11.213-15.281,22.506-22.869,33.796l-26.955,0.937
C73.861,128.772,39.565,111.731,5.18,94.869l-0.357,0.717c31.605,22.617,67.024,40.604,101.546,58.229
c11.064-0.287,22.121-0.863,33.174-1.428c7.762-12.326,15.781-26.513,19.12-40.893L157.997,111.051z"/>
<path fill="#58595B" d="M264.737,2.828c-18.822-3.471-38.493-3.312-57.502-1.835c-15.343,1.132-30.618,4.589-46.053,3.438
c-0.421,19.109-1.226,37.733,4.562,56.312l0.799-0.051c3.173-17.835,1.01-35.6-2.044-53.221c33.74-3.284,66.421,4.382,100.259-3.843
L264.737,2.828z"/>
<path fill="#58595B" d="M158.074,38.15c-3.295-8.507-6.589-17.014-9.885-25.52c-9.064-2.22-18.132-4.432-27.23-6.509
c-35.6,12.027-71.201,24.05-106.756,36.209l0.255,0.759c36.047-6.926,71.78-17.692,106.689-28.912
c7.255,1.988,14.598,3.62,22.008,4.911c7.047,15.19,14.356,30.707,23.803,44.579l0.744-0.291
C164.489,54.968,161.342,46.535,158.074,38.15z"/>
<path fill="#58595B" d="M160.091,50.622c-6.601-9.812-13.449-19.468-20.179-29.192c-9.375,0.666-18.749,1.332-28.124,1.999
C76.445,40.978,41.091,58.503,5.824,76.205l0.354,0.718c37.02-11.621,72.901-28.721,107.726-45.649
c7.476-0.508,14.952-1.091,22.416-1.759c8.674,11.085,18.321,22.744,29.682,31.234l0.656-0.458L160.091,50.622z"/>
<g>
<path fill="#FFFFFF" d="M201.445,130.63c-7.66,6.656-15.318,9.984-22.978,9.984c-10.952,0-17.538-10.02-19.757-30.064h-1.181
c-9.808,20.045-21.834,30.064-36.077,30.064c-10.668,0-18.971-4.402-24.911-13.207c-5.942-8.805-8.911-21.367-8.911-37.688
c0-16.82,4.258-30.242,12.777-40.264c8.518-10.021,18.824-15.032,30.923-15.032c9.02,0,16.087,2.147,21.206,6.442
c5.117,4.295,9.538,11.488,13.261,21.582h1.61l7.516-26.199h17.609v5.261c-5.153,7.946-12.025,22.656-20.615,44.131
c1.504,14.46,3.256,25.339,5.262,32.642c2.003,7.301,5.225,10.951,9.663,10.951c2.935,0,6.405-1.646,10.415-4.939L201.445,130.63z
M156.993,87.036c-1.933-16.106-4.778-27.488-8.536-34.145s-9.18-9.985-16.268-9.985c-7.588,0-13.636,4.134-18.146,12.401
s-6.765,19.273-6.765,33.018c0,26.412,6.55,39.619,19.649,39.619C140.887,127.944,150.908,114.308,156.993,87.036z"/>
</g>
<path fill="#58595B" d="M201.099,83.347c0-2.069-6.699-4.56-8.359-4.843c-2.587-0.549-5.939-0.144-7.966,1.729
c-3.158,2.41-9.006,9.821-9.646,2.196c-0.061-0.821-0.029-1.781,0.228-2.801c0.553-2.323,2.08-4.708,4.207-5.887
c6.389-4.071,22.23,0.128,22.23,9.207C201.735,83.475,201.504,83.607,201.099,83.347C201.099,83.347,201.203,83.461,201.099,83.347z
"/>
<path fill="#808285" d="M156.993,87.036c-1.933-16.106-4.778-27.488-8.536-34.145s-9.18-9.985-16.268-9.985
c-7.588,0-13.636,4.134-18.146,12.401s-6.765,19.273-6.765,33.018c0,26.412,6.55,39.619,19.649,39.619
C140.887,127.944,150.908,114.308,156.993,87.036z"/>
<path fill="#58595B" d="M201.099,90.624c0,2.069-6.699,4.56-8.359,4.843c-2.587,0.55-5.939,0.144-7.966-1.729
c-3.158-2.409-9.006-9.82-9.646-2.195c-0.061,0.82-0.029,1.781,0.228,2.801c0.553,2.322,2.08,4.707,4.207,5.887
c6.389,4.07,22.23-0.129,22.23-9.207C201.735,90.496,201.504,90.363,201.099,90.624C201.099,90.624,201.203,90.509,201.099,90.624z"
/>
</svg>

