<?xml version="1.0" encoding="utf-8"?>
<!-- Generator: Adobe Illustrator 16.0.0, SVG Export Plug-In . SVG Version: 6.00 Build 0)  -->
<!DOCTYPE svg PUBLIC "-//W3C//DTD SVG 1.1//EN" "http://www.w3.org/Graphics/SVG/1.1/DTD/svg11.dtd">
<svg version="1.1" id="Layer_1" xmlns="http://www.w3.org/2000/svg" xmlns:xlink="http://www.w3.org/1999/xlink" x="0px" y="0px"
width="215px" height="194.798px" viewBox="407 286.786 215 194.798" enable-background="new 407 286.786 215 194.798"
xml:space="preserve">
	<path fill="#931A26" d="M528.166,318.315c0,0,1.709-24.315,19.043-24.315c11.295,0,57.667,0,57.667,0L622,293.667V438h-76.457
	c0,0-16-1-16,13.666C529.543,451.666,515.789,329.296,528.166,318.315z"/>
	<path fill="#D25241" d="M500.377,318.315c0,0-6.709-24.315-24.043-24.315c-11.295,0-52.667,0-52.667,0L407,294.667V438h76
	c0,0,16-1,16,13.666C499,451.666,512.754,329.296,500.377,318.315z"/>
	<path fill="#931A26" d="M499,343.864V469v2v10l16.384-7L530,481.584V471v-2v-27.761v-19.056v-76.952
	c0-16.177,1.075-29.669,6.206-36.929c4.544-6.428,12.408-9.268,12.408-9.268C503,292.786,499,316.432,499,343.864z"/>
	<g>
		<path fill="#FFFFFF" d="M522.949,420.185v49.023h-16.797V341.864c0-36.719,14.746-55.078,44.237-55.078
		c11.134,0,19.972,2.751,26.515,8.252c6.543,5.502,9.813,13.103,9.813,22.803c0,16.733-9.439,28.19-28.319,34.375v0.781
		c21.288,4.883,31.934,17.351,31.934,37.402c0,12.37-3.874,21.825-11.621,28.368c-7.748,6.543-17.318,9.814-28.711,9.814
		C539.713,428.583,530.696,425.784,522.949,420.185z M537.988,357.587v-7.812c9.18-0.325,16.666-3.305,22.461-8.937
		c5.794-5.63,8.69-13.037,8.69-22.217c0-7.486-1.872-13.296-5.614-17.432c-3.744-4.134-8.807-6.201-15.187-6.201
		c-9.05,0-15.544,3.989-19.481,11.963c-3.939,7.976-5.908,20.067-5.908,36.279v58.008c0,5.991,2.327,10.71,6.981,14.16
		s10.141,5.176,16.455,5.176c17.058,0,25.586-9.635,25.586-28.906c0-10.352-2.945-18.555-8.838-24.609
		C557.242,361.005,548.86,357.848,537.988,357.587z"/>
	</g>
</svg>

