<!DOCTYPE svg PUBLIC "-//W3C//DTD SVG 1.1//EN" "http://www.w3.org/Graphics/SVG/1.1/DTD/svg11.dtd">
<svg version="1.1" id="Layer_1" xmlns="http://www.w3.org/2000/svg" xmlns:xlink="http://www.w3.org/1999/xlink" x="0px" y="0px"
width="268.667px" height="194.924px" viewBox="0 0 268.667 194.924" enable-background="new 0 0 268.667 194.924"
xml:space="preserve">
<path fill="#D25141" d="M113.333,23.635c0,0-0.186-19.93,8.666-21.215C138.667,0,141.333,18.201,141.333,18.201
S149.333,2.54,158,2.421s16.667,7.89,16.667,7.89l-36,76.379L113.333,23.635z"/>
<path fill="#D25141" d="M125.927,90.086c0,0-36.594,44.883-49.927,50.883s11.127-3.228,6.23,19.053S124.521,97.87,125.927,90.086z"
/>
<path fill="#D25141" d="M145.536,96.479c0,0,21.797,30.488,55.464,19.155s50-21,67.667-1.667c0,0-26.333-6.666-37,11.334
s-13.565,52.431-31.427,60.36S140.072,161.324,145.536,96.479z"/>
<path fill="#D25141" d="M104.338,166.14c0,0,53.527,34.994,73.879,27.813c0,0-41.747-80.984-42.982-91.651
S96.543,161.312,104.338,166.14z"/>
<g>
<path fill="#FFFFFF" d="M109.303,156.441c-6.348,12.029-11.937,23.918-16.768,35.666H64.402v-6.82
c4.547-5.023,12.931-17.289,25.149-36.803l36.376-58.398c-7.389-22.26-13.356-38.791-17.903-49.59
c-4.547-10.799-8.384-17.713-11.51-20.746c-3.126-3.03-6.727-4.547-10.799-4.547c-3.221,0-7.438,1.847-12.646,5.542l-5.825-8.241
C77.567,4.169,87.183,0,96.088,0c9.378,0,16.553,4.312,21.526,12.93c4.974,8.621,11.815,29.462,20.532,62.52l19.75-39.217
c7.862-15.63,13.262-26.902,16.199-33.818h27.992v6.82c-4.643,5.022-12.979,17.146-25.008,36.375l-31.545,50.868
c11.176,35.714,19.371,58.329,24.582,67.849c5.208,9.52,11.083,14.279,17.619,14.279c3.219,0,7.389-1.895,12.504-5.684l5.826,8.385
c-10.422,8.43-19.705,12.645-27.85,12.645c-10.326,0-18.023-4.453-23.09-13.355c-5.069-8.906-12.34-32.162-21.812-69.767
L109.303,156.441z"/>
</g>
</svg>

