<?xml version="1.0" encoding="utf-8"?>
<!-- Generator: Adobe Illustrator 16.0.0, SVG Export Plug-In . SVG Version: 6.00 Build 0)  -->
<!DOCTYPE svg PUBLIC "-//W3C//DTD SVG 1.1//EN" "http://www.w3.org/Graphics/SVG/1.1/DTD/svg11.dtd">
<svg version="1.1" id="Layer_1" xmlns="http://www.w3.org/2000/svg" xmlns:xlink="http://www.w3.org/1999/xlink" x="0px" y="0px"
width="94.466px" height="235.089px" viewBox="0 0 94.466 235.089" enable-background="new 0 0 94.466 235.089"
xml:space="preserve">
<path fill="#603913" d="M52.397,96.957l-4.193,48.76c0,0,9.826,12.48,20.303,2.002l-6.77-50.762H52.397z"/>
<path fill="#4B2A12" d="M63.882,110.899c0,0-4.4-6.491-7.058-2.865c-2.661,3.626-2.376,36.934,0.041,39.685
c2.415,2.745,4.6,2.438,4.6,2.438s-5.538,2.967-13.271-4.891l4.112-49.521l9.695,0.884C62.002,96.629,63.298,108.412,63.882,110.899
z"/>
<g>
<path fill="#4AA556" d="M84.261,70.283c0,0-12.012,8.65-26.983,8.65c-13.859,0-27.314-8.65-27.314-8.65L57.3,10.223L84.261,70.283z
"/>
<path fill="#4AA556" d="M87.638,89.523c0,0-13.287,9.284-29.85,9.284c-15.332,0-30.215-9.284-30.215-9.284l30.243-64.457
L87.638,89.523z"/>
<path fill="#006838" d="M27.657,89.398c0,0,0.933,0.356,2.567,0.979c0.806,0.307,1.785,0.681,2.907,1.109
c1.13,0.399,2.372,0.908,3.76,1.375c1.375,0.488,2.866,1.018,4.442,1.578c1.567,0.587,3.209,1.267,4.949,1.909
c1.747,0.599,3.601,1.131,5.535,1.323c1.924,0.266,3.911,0.222,5.869,0.073c1.961-0.189,3.894-0.473,5.779-0.744
c0.941-0.158,1.879-0.271,2.788-0.486c0.912-0.189,1.814-0.359,2.686-0.604c0.875-0.224,1.738-0.426,2.568-0.682
c0.834-0.239,1.662-0.432,2.446-0.699c1.593-0.456,3.076-0.966,4.454-1.441c1.358-0.517,2.63-0.962,3.73-1.425
c1.089-0.484,2.096-0.821,2.876-1.196c1.58-0.713,2.539-1.068,2.539-1.068l0.168,0.249c0,0-0.721,0.707-2.082,1.85
c-0.332,0.3-0.725,0.592-1.161,0.9c-0.432,0.316-0.903,0.654-1.416,1.002c-1.012,0.722-2.245,1.383-3.58,2.14
c-0.692,0.33-1.413,0.673-2.16,1.029c-0.745,0.364-1.561,0.629-2.38,0.954c-0.819,0.328-1.693,0.566-2.585,0.816
c-0.888,0.266-1.815,0.455-2.763,0.62c-0.941,0.195-1.91,0.324-2.892,0.433c-0.978,0.138-1.977,0.191-2.979,0.25
c-1.001,0.089-2.019,0.021-3.03,0.01c-1.015-0.057-2.028-0.17-3.036-0.264c-1.995-0.271-3.99-0.541-5.955-0.808
c-1.954-0.264-3.883-0.48-5.776-0.674c-1.883-0.227-3.728-0.466-5.403-0.958c-1.684-0.465-3.213-1.098-4.598-1.725
c-2.767-1.273-4.909-2.657-6.322-3.735c-1.42-1.067-2.114-1.839-2.114-1.839L27.657,89.398z"/>
<path fill="#006838" d="M30.049,70.16c0,0,0.85,0.32,2.337,0.88c0.73,0.279,1.618,0.618,2.635,1.007
c1.023,0.364,2.145,0.831,3.398,1.261c1.237,0.469,2.592,0.922,4.004,1.465c1.415,0.576,2.907,1.184,4.451,1.812
c1.572,0.574,3.247,1.081,4.999,1.258c1.742,0.249,3.544,0.197,5.316,0.044c1.775-0.19,3.521-0.47,5.223-0.729
c0.851-0.15,1.695-0.26,2.515-0.463c0.823-0.177,1.636-0.341,2.421-0.571c0.788-0.208,1.564-0.401,2.312-0.639
c0.752-0.22,1.498-0.402,2.204-0.648c1.437-0.419,2.774-0.89,4.02-1.323c1.225-0.476,2.377-0.878,3.372-1.303
c0.984-0.441,1.9-0.745,2.607-1.086c1.434-0.647,2.312-0.964,2.311-0.964l0.172,0.246c-0.001,0-0.634,0.666-1.844,1.74
c-0.294,0.282-0.644,0.558-1.034,0.847c-0.386,0.297-0.807,0.615-1.266,0.942c-0.903,0.683-2.016,1.301-3.216,2.017
c-0.625,0.311-1.276,0.634-1.95,0.968c-0.671,0.347-1.412,0.594-2.154,0.9c-0.742,0.307-1.535,0.537-2.346,0.768
c-0.806,0.248-1.649,0.429-2.512,0.58c-0.857,0.18-1.738,0.303-2.633,0.401c-0.89,0.126-1.8,0.177-2.713,0.228
c-0.911,0.08-1.838,0.015-2.759-0.002c-0.923-0.058-1.845-0.171-2.761-0.266c-1.811-0.261-3.622-0.522-5.405-0.78
c-1.772-0.25-3.524-0.441-5.248-0.612c-1.714-0.197-3.395-0.411-4.917-0.866c-1.528-0.433-2.912-1.026-4.163-1.615
c-1.246-0.603-2.355-1.222-3.304-1.825c-0.95-0.602-1.744-1.181-2.373-1.692c-1.266-1.006-1.873-1.734-1.873-1.734L30.049,70.16z"
/>
<path fill="#4AA556" d="M79.753,49.787c0,0-9.959,7.169-22.369,7.169c-11.487,0-22.642-7.169-22.642-7.169L57.405,0L79.753,49.787z
"/>
<path fill="#006838" d="M79.835,49.913c0,0-0.494,0.612-1.457,1.528c-0.229,0.242-0.515,0.476-0.84,0.727
c-0.317,0.257-0.668,0.53-1.055,0.806c-0.761,0.579-1.677,1.098-2.691,1.666c-1.043,0.501-2.178,1.06-3.467,1.408
c-0.631,0.21-1.317,0.307-2.008,0.415c-0.689,0.117-1.407,0.165-2.131,0.21c-0.718,0.071-1.451,0.091-2.183,0.147
c-0.729,0.075-1.467,0.12-2.205,0.218c-1.48,0.161-2.983,0.355-4.514,0.557c-1.526,0.151-3.087,0.294-4.602,0.153
c-1.521-0.092-3.006-0.309-4.434-0.574c-1.424-0.279-2.782-0.653-4.022-1.132c-1.246-0.463-2.38-1.008-3.407-1.54
c-2.045-1.088-3.607-2.231-4.634-3.108c-1.033-0.87-1.53-1.483-1.53-1.483l0.173-0.245c0,0,0.713,0.249,1.96,0.684
c0.615,0.211,1.361,0.468,2.217,0.762c0.86,0.271,1.805,0.615,2.856,0.925c2.08,0.682,4.518,1.327,7.106,2.103
c1.305,0.352,2.659,0.714,4.061,0.977c1.398,0.275,2.827,0.585,4.287,0.835c1.457,0.221,2.945,0.331,4.392,0.175
c1.449-0.11,2.848-0.489,4.134-1.014c0.646-0.252,1.271-0.515,1.869-0.8c0.602-0.259,1.19-0.513,1.764-0.76
c0.569-0.249,1.145-0.425,1.686-0.643c0.541-0.216,1.07-0.411,1.582-0.595c0.994-0.42,1.957-0.747,2.77-1.086
c0.809-0.359,1.56-0.578,2.174-0.853c1.228-0.51,1.986-0.714,1.986-0.714L79.835,49.913z"/>
</g>
<g>
<path fill="#FFFFFF" d="M46.028,145.734c-8.139-7.031-13.574-12.679-16.309-16.943c-2.734-4.264-4.102-8.479-4.102-12.646
c0-6.705,2.832-12.158,8.496-16.357s13.248-6.299,22.754-6.299c13.606,0,25.13,3.483,34.57,10.449v14.16h-9.375
c-5.273-11.197-13.607-16.797-25-16.797c-5.534,0-9.75,1.221-12.646,3.662c-2.897,2.441-4.346,5.355-4.346,8.74
c0,3.061,1.27,6.055,3.809,8.984s9.928,9.473,22.168,19.629c9.83,8.203,17.024,16.016,21.582,23.438
c4.557,7.422,6.836,16.211,6.836,26.367c0,12.891-4.069,23.275-12.207,31.152c-8.139,7.878-18.425,11.816-30.859,11.816
c-12.5,0-22.624-3.955-30.371-11.865c-7.748-7.91-11.621-18.147-11.621-30.713C9.407,169.725,21.614,154.132,46.028,145.734z
M53.06,151.496c-16.928,7.422-25.391,21.647-25.391,42.676c0,9.896,2.197,17.904,6.592,24.023c4.395,6.12,10.042,9.18,16.943,9.18
c7.877,0,14.014-3.174,18.408-9.521s6.592-14.925,6.592-25.732c0-8.072-1.84-15.234-5.518-21.484
C67.008,164.386,61.132,158.006,53.06,151.496z"/>
</g>
<path fill="#414042" d="M3.774,150.138c0.22-0.719,0.562-1.401,0.958-2.052c0.408-0.643,0.871-1.261,1.405-1.819
c1.061-1.126,2.366-2.052,3.812-2.693c1.452-0.613,3.02-1.007,4.594-1.06c0.787-0.051,1.571-0.015,2.349,0.042
c0.778,0.074,1.542,0.219,2.299,0.378l-0.955,0.332c0.303-0.345,0.559-0.58,0.854-0.841c0.29-0.249,0.583-0.491,0.895-0.706
c0.62-0.435,1.28-0.807,1.965-1.123c1.368-0.638,2.865-0.993,4.357-1.045c0.745-0.029,1.49,0.012,2.216,0.136
c0.726,0.118,1.441,0.281,2.123,0.532c0.344,0.113,0.679,0.25,1.009,0.394c0.336,0.128,0.648,0.312,0.968,0.469
c0.633,0.331,1.228,0.726,1.803,1.134c-0.661-0.254-1.323-0.482-1.988-0.683c-0.671-0.183-1.333-0.368-2.009-0.469
c-0.672-0.114-1.345-0.184-2.013-0.201c-0.334-0.009-0.667-0.002-0.999,0.021c-0.33,0.025-0.659,0.05-0.984,0.098
c-1.305,0.174-2.547,0.617-3.695,1.212c-0.571,0.305-1.118,0.657-1.624,1.058c-0.254,0.198-0.504,0.401-0.74,0.616
c-0.228,0.205-0.478,0.457-0.635,0.643l-0.373,0.442l-0.582-0.11c-0.693-0.131-1.389-0.233-2.084-0.299
c-0.693-0.067-1.39-0.117-2.081-0.089c-0.347-0.002-0.689,0.039-1.034,0.062c-0.341,0.04-0.688,0.063-1.025,0.125
c-0.684,0.098-1.348,0.281-2.003,0.496c-0.66,0.204-1.302,0.476-1.917,0.805c-0.615,0.329-1.224,0.689-1.791,1.12
c-0.566,0.428-1.126,0.885-1.632,1.405C4.702,148.981,4.208,149.53,3.774,150.138z"/>
</svg>

