<?xml version="1.0" encoding="utf-8"?>
<!-- Generator: Adobe Illustrator 16.0.0, SVG Export Plug-In . SVG Version: 6.00 Build 0)  -->
<!DOCTYPE svg PUBLIC "-//W3C//DTD SVG 1.1//EN" "http://www.w3.org/Graphics/SVG/1.1/DTD/svg11.dtd">
<svg version="1.1" id="Layer_1" xmlns="http://www.w3.org/2000/svg" xmlns:xlink="http://www.w3.org/1999/xlink" x="0px" y="0px"
width="74.805px" height="169.356px" viewBox="0 0 74.805 169.356" enable-background="new 0 0 74.805 169.356"
xml:space="preserve">
<g>
<path fill="#E29343" d="M22.259,154.712l-4.428-7.835c27.096-15.314,51.052-0.521,52.059,0.115l-4.802,7.612
C64.261,154.088,44.563,142.104,22.259,154.712z"/>
</g>
<polygon fill="#523D5B" points="37.148,72.793 39.148,34.793 41.148,72.793 "/>
<g>
<path fill="#E29343" d="M22.253,111.715l-4.416-7.842c27.18-15.309,51.206-0.521,52.216,0.115L65.25,111.6l2.401-3.806
l-2.389,3.813C64.432,111.092,44.646,99.102,22.253,111.715z"/>
</g>
<g>
<path fill="#FFFFFF" d="M74.805,153.438c-11.85,10.612-25.554,15.918-41.113,15.918c-10.678,0-18.962-2.229-24.854-6.689
C2.945,158.208,0,151.973,0,143.965c0-5.859,2.083-11.1,6.25-15.723c4.166-4.622,10.156-8.04,17.969-10.254v-0.977
c-13.998-3.711-20.996-11.133-20.996-22.266c0-6.575,3.271-11.946,9.814-16.113c6.543-4.166,15.543-6.25,27.002-6.25
c8.203,0,18.131,1.791,29.785,5.371v16.797h-9.961c-4.102-9.57-11.23-14.355-21.387-14.355c-5.078,0-9.245,1.335-12.5,4.004
c-3.256,2.67-4.883,6.413-4.883,11.23c0,5.795,1.953,10.01,5.859,12.646s10.742,3.955,20.508,3.955h5.566v10.547h-8.789
c-8.594,0-15.072,1.514-19.434,4.541c-4.362,3.027-6.543,7.504-6.543,13.428c0,11.523,7.063,17.285,21.191,17.285
c10.677,0,20.605-3.809,29.785-11.426L74.805,153.438z"/>
</g>
<path fill="#F3BC77" d="M52.648,122.627V112.02c0,0,13.751-2.06,17.406-8.039l0.062,10.5
C70.117,114.481,69.121,119.975,52.648,122.627z"/>
<circle fill="#D25241" cx="39.102" cy="63.59" r="4.453"/>
<g>
<rect x="19.648" y="52.793" fill="#523D5B" width="39" height="2"/>
</g>
<polygon fill="#523D5B" points="64.336,53.7 53.586,48.887 56.648,53.7 53.586,59.2 "/>
<polygon fill="#523D5B" points="25.648,50.793 17.648,50.793 19.648,53.793 17.648,56.793 25.648,56.793 27.648,53.793 "/>
<path fill="#F4DEC6" d="M47.843,25.329c-1.91-1.114-3.816-2.234-5.75-3.296l-2.653-1.483c0.465-0.884,0.919-1.771,1.322-2.677
c0.79-1.767,1.344-3.621,1.754-5.528c0.418-1.904,0.737-3.844,0.888-5.847c0.041-0.5,0.07-1.003,0.088-1.511
c0.015-0.509,0.034-1.016,0.015-1.538S43.5,2.417,43.447,1.883c-0.034-0.527-0.084-1.06-0.174-1.607L42.523,0
C42.1,0.359,41.717,0.732,41.35,1.112c-0.386,0.373-0.706,0.769-1.059,1.154c-0.354,0.385-0.666,0.784-0.985,1.181
c-0.315,0.398-0.62,0.801-0.912,1.208c-1.184,1.623-2.197,3.307-3.112,5.028c-0.924,1.718-1.703,3.489-2.246,5.347
c-0.546,1.857-0.898,3.785-1.361,5.672l-0.844,3.444l2.637,0.865c1.053,0.345,2.09,0.721,3.127,1.099l3.11,1.134
c1.535,0.573,3.087,1.112,4.64,1.647c-0.517,2.948-1.011,5.902-1.51,8.854c-0.598,3.643-1.174,7.292-1.714,10.95l0.775,0.195
c1.257-3.477,2.478-6.964,3.677-10.456c1.181-3.496,2.382-6.988,3.523-10.494l0.515-1.581L47.843,25.329z"/>
</svg>

