<?xml version="1.0" encoding="utf-8"?>
<!-- Generator: Adobe Illustrator 16.0.0, SVG Export Plug-In . SVG Version: 6.00 Build 0)  -->
<!DOCTYPE svg PUBLIC "-//W3C//DTD SVG 1.1//EN" "http://www.w3.org/Graphics/SVG/1.1/DTD/svg11.dtd">
<svg version="1.1" id="Layer_1" xmlns="http://www.w3.org/2000/svg" xmlns:xlink="http://www.w3.org/1999/xlink" x="0px" y="0px"
width="245.537px" height="223.235px" viewBox="0 0 245.537 223.235" enable-background="new 0 0 245.537 223.235"
xml:space="preserve">
<path fill="#EDB894" d="M195.58,85.044c-3.945,0.994-8.409-2.473-8.409-2.473s7.021-9.746,4.008-11.645
c-4.239-2.671-4.903-9.422-4.874-13.637c4.265-2.732,12.721-8.784,9.6-11.037c-3.33-2.405-20.799-14.946-20.799-14.946
l-46.438-0.541c0,0-32.372,16.001-25.52,32.576c0,0,7.103,31.475,15.103,40.725s28.652,25.234,38.402,20.852
c6.348-2.854,24.389-13.475,24.389-13.475s12.399-11.258,15.807-14.362C201.949,92.436,199.771,83.988,195.58,85.044z"/>
<path fill="#EF4136" d="M195.506,84.914c-1.899,0.073-3.618-0.026-5.329-0.928c-0.388-0.216-0.758-0.461-1.11-0.73
c-0.4-0.304-1.008-0.544-0.686-1.016c0.593-0.867,1.107-1.789,1.561-2.736c0.773-1.612,1.328-3.296,1.698-5.043
c0.06-0.282,0.516-2.223-0.016-2.164c-0.076,0.008-0.293,0.436-0.333,0.495c-1.033,1.535-2.065,3.07-3.098,4.604
c-0.991,1.473-2.016,2.935-3.145,4.305c-0.203,0.246-0.414,0.481-0.65,0.696c-0.253,0.229,0.01,0.362,0.225,0.605
c0.441,0.499,1.48,1.099,1.701,1.646c0.09-0.08,1.68,0.955,1.945,1.073c0.858,0.382,1.781,0.624,2.72,0.686
c0.942,0.062,1.875-0.068,2.771-0.362C194.127,85.923,195.956,85.375,195.506,84.914z"/>
<path fill="#603913" d="M162.355,20.417c0,0-22.264-35.251-64.355,12.249c-3.487,3.935,0.549,49.12,4.195,56.513
c15.472,31.37,29.257,26.783,29.257,26.783c0,0-6.478-18.474-5.627-34.397c0.041-0.767,0.001-1.544,0.175-2.281
c0.94-3.972-3.916-10.034-2.19-15.035c1.924-5.577,9.909-3.424,9.909-3.424C144.415,42.39,162.355,20.417,162.355,20.417z"/>
<path fill="#603913" d="M73.364,109.229c-5.667-8.078-17.155-10.095-21.95-18.726c-0.081-5.303,16.74-7.506,20.843-12.439
c16.881-15.363-25.196-32.02-6.798-39.578c4.676-1.991,10.201-0.75,11.041,5.218c2.157-8.195-5.532-12.268-12.499-11.435
c-20.407,2.446-14.038,25.693-4.435,34.706c-12.043,4.748-30.817,9.396-26.104,26.779c1.627,6.118,5.844,11.338,10.778,15.134
c10.299,7.836,20.769,5.819,14.067,19.385c-6.239,12.927-8.746,29.67,8.442,33.976C45.787,143.854,87.855,129.605,73.364,109.229
C71.98,107.256,74.742,111.167,73.364,109.229z M62.508,70.121C61.222,68.772,62.332,69.945,62.508,70.121
C62.408,70.015,62.702,70.313,62.508,70.121z M50.571,89.68c0.002-0.003,0.009-0.008,0.012-0.012
C50.496,89.811,50.434,89.846,50.571,89.68z"/>
<g>
<path fill="#FFFFFF" d="M159.643,223.235V85.833c0-21.19-1.955-34.886-5.859-41.089c-3.908-6.2-10.158-9.302-18.75-9.302
c-6.349,0-13.33,3.419-20.947,10.254c-7.617,6.837-11.426,14.601-11.426,23.291v91.259H77.464V52.874
c0-13.085-3.516-19.629-10.547-19.629c-4.298,0-8.888,2.051-13.77,6.152l-5.713-8.789c11.034-8.496,21.288-12.744,30.762-12.744
c14.452,0,22.362,8.35,23.73,25.049l0.732,0.439c16.308-16.992,31.151-25.488,44.532-25.488c11.033,0,20.068,3.346,27.1,10.034
c7.031,6.69,10.547,20.68,10.346,41.968v153.369H159.643z"/>
</g>
<path fill="#BC794B" d="M138.743,62.757c-4.756,0-7.192-4.109-11.891,0.195c-2.963,4.597-0.674,11.42,1.637,15.737
c7.072,12.817,18.819,3.304,11.157-8.369c-8.869-13.512-13.209,10.033-0.771,6.533c-11.875,7.062-14.625-19.198-0.45-11.562
c13.421,7.229,1.469,28.858-8.291,17.823c-4.744-4.969-9.752-13.029-6.283-20.029C126.544,56.99,135.776,58.549,138.743,62.757z"/>
<path fill="#603913" d="M145.88,39.517c-9.947,19.522,0.746,22.479,11.247,36.477c7.54,10.073-23.635,19.163-8.859,33.194
c-7.94-2.637-10.277-10.754-5.34-17.768c6.999-9.966,17.696-9.94,5.368-20.978C138.875,61.808,132.948,48.625,145.88,39.517z"/>
<path fill="#F9EFE1" d="M203.022,69.37c6.067,1.827,8.056,9.826,2.954,13.796C203.016,79.208,201.795,74.217,203.022,69.37z"/>
<path fill="#F9EFE1" d="M161.333,0c34.758,0.771,66.981,24.148,79.21,56.437c15.827,41.792-7.949,89.38-43.435,113.229
c30.156-26.983,52.753-70.758,37.94-111.177C223.573,27.173,193.977,5.191,161.333,0z"/>
<path fill="#F9EFE1" d="M195,33.333c40.641,16.226,37.602,81.117,4.581,103C224.633,108.348,227.587,57.188,195,33.333z"/>
</svg>

