<?xml version="1.0" encoding="utf-8"?>
<!-- Generator: Adobe Illustrator 16.0.0, SVG Export Plug-In . SVG Version: 6.00 Build 0)  -->
<!DOCTYPE svg PUBLIC "-//W3C//DTD SVG 1.1//EN" "http://www.w3.org/Graphics/SVG/1.1/DTD/svg11.dtd">
<svg version="1.1" xmlns="http://www.w3.org/2000/svg" xmlns:xlink="http://www.w3.org/1999/xlink" x="0px" y="0px"
width="133.292px" height="200.897px" viewBox="0 0 133.292 200.897" enable-background="new 0 0 133.292 200.897"
xml:space="preserve">
<g id="Layer_2">
</g>
<g id="Layer_1">
<g>
<path fill="#FFFFFF" d="M101.074,6.641c-19.792,33.269-35.19,62.402-46.191,87.402c0.649,6.836,0.977,14.681,0.977,23.535
c0,4.361-0.132,8.17-0.391,11.426l-8.789,5.566H36.621v-6.152c0-10.808,2.212-21.354,6.641-31.641
C40.918,73.081,36.914,52.769,31.25,35.84c-5.664-16.927-11.753-25.391-18.262-25.391c-2.148,0-5.144,1.401-8.984,4.199L0,8.984
C7.617,2.995,14.419,0,20.41,0c9.243,0,16.585,6.299,22.021,18.896c5.435,12.598,8.968,31.494,10.596,56.689h1.172
c13.802-33.333,22.884-57.91,27.246-73.73h19.629V6.641z"/>
</g>
<path fill="#DDA927" d="M45.499,159.397c-0.523-15.66-8.852-19-8.852-19s-1.155-8.75,2.689-13.25
c3.367-3.942,6.678-3.75,6.678-3.75h0.86c0,0,3.312-0.192,6.679,3.75c3.844,4.5,2.689,13.375,2.689,13.375
s-8.852,3.271-8.852,18.938C47.392,159.46,45.585,161.995,45.499,159.397z"/>
<path d="M50.126,131.396c0-1.84-1.493-3.333-3.334-3.333s-3.334,1.493-3.334,3.333c0,1.355,0.812,2.516,1.972,3.037l1.362,29.965
l1.362-29.965C49.314,133.911,50.126,132.751,50.126,131.396z"/>
<path d="M47.438,159.935c-0.135,0.722-0.248,1.443-0.401,2.165c-0.187,0.717-0.335,1.453-0.596,2.154
c-0.435,1.427-1.098,2.824-2.03,4.072c-0.924,1.261-2.2,2.259-3.542,3.021c-1.353,0.744-2.762,1.296-4.168,1.794
c-2.815,0.966-5.607,1.777-8.395,2.648c-2.754,0.876-5.467,1.808-7.904,3.127c-2.429,1.32-4.525,3.081-5.881,5.342
c-0.69,1.121-1.131,2.359-1.613,3.766c-0.336,1.218-0.6,2.556-0.482,3.799c0.104,1.246,0.609,2.388,1.504,3.253
c0.89,0.867,2.114,1.473,3.437,1.817c1.331,0.336,2.739,0.473,4.159,0.482c0.355-0.001,0.711-0.026,1.068-0.038l0.535-0.024
c0.092,0.005,0.336-0.05,0.498-0.072c0.735-0.114,1.383-0.268,2.094-0.451c2.791-0.729,5.508-1.822,8.186-2.966
c2.678-1.156,5.312-2.421,7.933-3.719l7.847-3.965c1.321-0.648,2.644-1.296,4.025-1.886c0.701-0.286,1.396-0.572,2.196-0.791
c0.222-0.046,0.409-0.104,0.664-0.134l0.399-0.03c0.124-0.014,0.38,0.033,0.562,0.074l0.146,0.038l0.167,0.077l0.124,0.06
l0.247,0.119l0.495,0.238c0.784,0.486,1.546,1.014,2.056,1.908c0.521,0.88,0.638,1.912,0.609,2.737
c-0.023,0.84-0.13,1.563-0.152,2.207c-0.026,0.643,0.053,1.174,0.242,1.644c0.076,0.241,0.234,0.452,0.369,0.673l0.024,0.041
c0.024,0.035-0.02-0.023-0.007-0.007l0.021,0.026l0.085,0.107l0.17,0.216l0.34,0.431c0.459,0.685,0.887,0.852,1.286,1.27
c1.002,0.661,2.151,1.084,3.41,1.244c2.554,0.225,5.306-0.389,7.965-1.311c2.677-0.913,5.295-2.098,8.089-3.189l-0.116,0.051
c2.02-0.977,4.021-1.968,6.067-2.917c2.028-0.968,4.084-1.905,6.146-2.835c1.021-0.481,2.078-0.901,3.126-1.334
c1.056-0.421,2.085-0.889,3.16-1.27l3.207-1.169c1.058-0.415,2.18-0.676,3.266-1.02c1.1-0.308,2.172-0.69,3.301-0.904l3.351-0.725
c1.118-0.23,2.27-0.312,3.398-0.474c1.125-0.145,2.278-0.301,3.395-0.35c2.231-0.149,4.593-0.328,6.902,0.305
c1.144,0.312,2.248,0.868,3.113,1.681c0.879,0.804,1.468,1.839,1.896,2.892l-0.273,0.125c-0.534-0.973-1.226-1.839-2.07-2.482
c-0.846-0.646-1.851-1.029-2.894-1.205c-2.104-0.34-4.295-0.007-6.51,0.292c-1.125,0.133-2.185,0.361-3.275,0.583
c-1.08,0.237-2.171,0.391-3.234,0.693l-3.187,0.908c-1.07,0.259-2.099,0.69-3.145,1.043c-1.037,0.388-2.095,0.696-3.112,1.147
l-3.077,1.258c-1.028,0.408-2.028,0.909-3.043,1.359c-1.01,0.467-2.026,0.91-3.03,1.401c-2.014,0.959-4.025,1.927-6.031,2.934
c-1.998,1.004-4.04,1.971-6.064,2.949l-0.04,0.02l-0.076,0.031l-4.05,1.63c-1.391,0.524-2.783,1.059-4.237,1.499
c-2.873,0.899-5.977,1.59-9.271,1.218c-1.648-0.242-3.289-0.863-4.697-1.878c-0.648-0.598-1.454-1.277-1.782-1.847l-0.321-0.445
l-0.16-0.223l-0.081-0.111l-0.02-0.027c-0.001-0.001-0.057-0.08-0.044-0.065l-0.045-0.076c-0.243-0.406-0.484-0.811-0.625-1.275
c-0.317-0.902-0.37-1.861-0.298-2.676c0.068-0.816,0.205-1.541,0.246-2.163c0.044-0.627-0.014-1.104-0.219-1.507
c-0.189-0.421-0.662-0.771-1.072-1.105l-0.478-0.271l-0.239-0.135l-0.12-0.067l-0.03-0.018c0.037,0.017-0.125-0.061,0.075,0.033
l0.012,0.013c0.001,0.019,0.08-0.003,0.021,0l-0.149,0.002c-0.109,0.001-0.278,0.04-0.416,0.055
c-0.623,0.126-1.305,0.347-1.974,0.571c-1.346,0.474-2.697,1.018-4.039,1.58c-2.683,1.137-5.36,2.326-8.041,3.506
c-2.673,1.196-5.346,2.401-8.045,3.555c-2.699,1.157-5.421,2.264-8.256,3.157c-0.696,0.214-1.467,0.428-2.172,0.567
c-0.2,0.036-0.312,0.079-0.584,0.109l-0.559,0.061c-0.373,0.04-0.745,0.092-1.12,0.12c-1.504,0.099-3.034,0.067-4.568-0.205
c-1.524-0.287-3.082-0.874-4.376-1.965c-1.305-1.076-2.176-2.722-2.423-4.377c-0.252-1.665-0.102-3.274,0.312-4.88
c0.417-1.368,0.88-2.941,1.704-4.338c1.627-2.804,4.196-4.932,6.936-6.318c2.742-1.425,5.618-2.345,8.473-3.111l8.472-2.227
c1.374-0.408,2.73-0.835,3.998-1.4c1.254-0.583,2.371-1.365,3.308-2.365c0.929-1.004,1.686-2.219,2.244-3.541
c0.587-1.301,1.043-2.688,1.492-4.09L47.438,159.935z"/>
</g>
</svg>

