<!DOCTYPE svg PUBLIC "-//W3C//DTD SVG 1.1//EN" "http://www.w3.org/Graphics/SVG/1.1/DTD/svg11.dtd">
<svg version="1.1" id="Layer_2" xmlns="http://www.w3.org/2000/svg" xmlns:xlink="http://www.w3.org/1999/xlink" x="0px" y="0px"
width="404.044px" height="311.793px" viewBox="0 0 404.044 311.793" enable-background="new 0 0 404.044 311.793"
xml:space="preserve">
<g>
<path fill="#FFFFFF" d="M173.858,20.846h24.44v100.316c0,15.253,5.304,22.877,15.914,22.877c5.02,0,9.755-1.895,14.209-5.684
l5.826,8.241c-9.946,8.241-19.846,12.362-29.697,12.362c-20.461,0-30.692-11.982-30.692-35.949V20.846z"/>
</g>
<path fill="#D25141" d="M378.371,117.488c0,0-16.5-28-44-36s-56,15.5-61,33.5c0,0,14.399,9.291,32.005,10.409
c0.661,0.042,1.326,0.073,1.995,0.091c18.5,0.5-23.5,13-24,17.5c0,0,17,6.5,31.5,3.5s6.5,18,36,30s13.124,41.801,7.562,51.15
s19.608,2.999,30.938-38.15C400.7,148.339,382.621,123.678,378.371,117.488z"/>
<path fill="#D25141" d="M347.707,108.488c0,0,10.518-12.533,21.664-18.195c20.5-10.414,8.426,20.767,8.867,37.686"/>
<path fill="#931B25" d="M351.871,90.293c24.413,15.801,39.882,66.11,32.182,95.945c-16.711,64.746-42.479,37.092-92.682,41.555
c13.982,19.102,13.297,32.596,45.134,33c6.048,13.929-12.49,31.184,0,51C368.753,257.999,461.87,161.488,351.871,90.293z"/>
<path fill="#D25141" d="M333.209,143.488c0,0-25.838,8.5-37.838,28c0,0,20.173,9.5,52.336-9.5"/>
<g>
<path fill="#931B25" d="M295.371,171.488c0,0,0.245,0.09,0.703,0.22c0.456,0.128,1.133,0.302,2,0.45
c0.857,0.186,1.928,0.268,3.124,0.42c1.221,0.047,2.572,0.15,4.061,0.101c1.478,0.04,3.088-0.188,4.769-0.274
c0.84-0.116,1.704-0.234,2.586-0.356c0.44-0.058,0.884-0.116,1.333-0.176c0.446-0.09,0.897-0.181,1.352-0.271
c0.907-0.176,1.83-0.353,2.764-0.532c0.925-0.233,1.861-0.47,2.805-0.708c0.94-0.252,1.901-0.438,2.841-0.746
c0.943-0.293,1.89-0.588,2.837-0.883c1.916-0.511,3.76-1.275,5.614-1.912c0.917-0.347,1.852-0.624,2.743-0.992
c0.893-0.365,1.775-0.727,2.643-1.081c1.734-0.714,3.455-1.315,5.014-2.062c1.576-0.706,3.087-1.343,4.487-1.928
c1.41-0.567,2.646-1.203,3.779-1.701c1.119-0.524,2.118-0.947,2.937-1.304c1.642-0.709,2.61-1.076,2.61-1.076
s-0.781,0.663-2.2,1.758c-0.711,0.545-1.57,1.217-2.583,1.949c-1.015,0.728-2.121,1.62-3.449,2.394
c-1.302,0.817-2.718,1.702-4.238,2.604c-1.497,0.944-3.186,1.741-4.913,2.607c-1.728,0.866-3.521,1.751-5.437,2.454
c-1.894,0.749-3.805,1.545-5.81,2.106c-0.995,0.297-1.99,0.593-2.981,0.889c-0.984,0.318-2.019,0.462-3.015,0.698
c-1.004,0.212-1.996,0.435-2.987,0.602c-1.001,0.123-1.99,0.246-2.962,0.366c-0.486,0.056-0.967,0.112-1.444,0.167
c-0.482,0.02-0.96,0.037-1.434,0.055c-0.943,0.026-1.866,0.052-2.764,0.076c-1.807-0.107-3.5-0.148-5.056-0.441
c-1.559-0.173-2.958-0.576-4.185-0.885c-1.218-0.393-2.258-0.763-3.081-1.162c-0.419-0.173-0.779-0.362-1.085-0.543
c-0.308-0.174-0.569-0.313-0.771-0.455C295.565,171.652,295.371,171.488,295.371,171.488z"/>
</g>
<circle cx="315.955" cy="105.572" r="5.584"/>
<g>
<path fill="#931B25" d="M339.871,114.488c0,0,0.264,0.3,0.629,0.884c0.367,0.583,0.83,1.452,1.253,2.56
c0.412,1.108,0.771,2.461,0.921,3.965c0.067,0.752,0.105,1.541,0.045,2.346c-0.04,0.807-0.17,1.626-0.366,2.437
c-0.206,0.808-0.484,1.604-0.849,2.351c-0.352,0.751-0.805,1.439-1.287,2.061c-0.496,0.615-1.034,1.152-1.582,1.606
c-0.286,0.214-0.554,0.43-0.827,0.617c-0.283,0.169-0.557,0.333-0.819,0.489c-0.541,0.281-1.046,0.508-1.507,0.663
c-0.462,0.154-0.859,0.286-1.203,0.347c-0.681,0.137-1.07,0.176-1.07,0.176s0.292-0.283,0.802-0.709
c0.262-0.201,0.536-0.512,0.878-0.797c0.332-0.304,0.673-0.68,1.044-1.062c0.362-0.396,0.73-0.829,1.085-1.303
c0.353-0.476,0.687-0.99,1.002-1.532c0.144-0.276,0.291-0.559,0.439-0.844c0.117-0.301,0.27-0.585,0.382-0.893
c0.232-0.611,0.449-1.24,0.6-1.896c0.666-2.605,0.672-5.472,0.614-7.679c-0.03-1.105-0.084-2.048-0.122-2.719
C339.894,114.876,339.871,114.488,339.871,114.488z"/>
</g>
<g>
<path fill="#931B25" d="M350.286,104.312c0,0,0.529,0.495,1.309,1.494c0.775,0.998,1.824,2.494,2.78,4.469
c0.986,1.958,1.859,4.413,2.344,7.168c0.191,1.382,0.394,2.83,0.332,4.314c-0.031,1.48-0.187,2.989-0.502,4.469l-0.259,1.104
l-0.336,1.08c-0.201,0.728-0.52,1.408-0.798,2.096c-0.582,1.368-1.35,2.61-2.114,3.781c-0.404,0.57-0.812,1.122-1.229,1.647
c-0.424,0.518-0.882,0.986-1.303,1.459c-0.87,0.92-1.749,1.732-2.608,2.409c-0.43,0.337-0.842,0.66-1.233,0.967
c-0.396,0.3-0.805,0.54-1.17,0.788c-0.732,0.492-1.384,0.895-1.95,1.181c-1.113,0.599-1.761,0.905-1.761,0.905
s0.503-0.525,1.404-1.384c0.463-0.413,0.972-0.976,1.574-1.587c0.614-0.598,1.241-1.334,1.938-2.108
c0.359-0.378,0.688-0.81,1.03-1.252c0.336-0.446,0.737-0.861,1.059-1.357c0.333-0.485,0.701-0.965,1.028-1.484
c0.305-0.534,0.666-1.044,0.984-1.591c0.291-0.562,0.613-1.117,0.89-1.701c0.242-0.602,0.552-1.179,0.774-1.796
c0.225-0.617,0.475-1.229,0.647-1.868l0.285-0.953l0.217-0.972c0.311-1.292,0.48-2.616,0.54-3.929
c0.069-1.312,0.043-2.617-0.053-3.88c-0.15-1.257-0.279-2.487-0.529-3.64c-0.246-1.15-0.502-2.245-0.799-3.243
c-0.586-2-1.219-3.646-1.695-4.793C350.604,104.961,350.286,104.312,350.286,104.312z"/>
</g>
<g>
<path fill="#68C8C8" d="M93.489,25.989c0.222,3.538,1.949,6.855,4.59,8.781c2.624,1.996,5.979,2.813,9.369,3.077
c0.855,0.053,1.706,0.107,2.576,0.078c0.859,0.014,1.729-0.041,2.598-0.107c0.865-0.024,1.739-0.135,2.609-0.225
c0.869-0.072,1.742-0.223,2.612-0.356c0.87-0.12,1.74-0.282,2.608-0.467c0.869-0.179,1.737-0.331,2.602-0.558l2.597-0.613
l2.587-0.699c1.723-0.465,3.437-1.015,5.152-1.524l5.14-1.71c3.479-1.187,6.954-2.367,10.454-3.508
c3.489-1.159,6.993-2.29,10.538-3.326c3.522-1.082,7.116-2.004,10.693-2.938c1.798-0.44,3.618-0.832,5.423-1.249
c1.805-0.423,3.616-0.822,5.453-1.144l5.48-1.027l5.523-0.837c1.832-0.304,3.69-0.493,5.538-0.712
c1.849-0.213,3.688-0.455,5.552-0.56l5.56-0.426l5.576-0.178c0.927-0.055,1.857-0.027,2.788-0.006l2.789,0.056
c0.929,0.03,1.86,0.012,2.789,0.056l2.782,0.234c3.724,0.188,7.398,0.829,11.098,1.357c1.819,0.416,3.641,0.825,5.475,1.205
l1.375,0.292c0.452,0.117,0.897,0.262,1.346,0.391l2.691,0.8l2.706,0.782c0.91,0.244,1.763,0.631,2.649,0.941l5.284,1.973
l3.628,1.354l-3.284,2.665c-2.601,2.11-5.198,4.513-7.262,7.008c-1.007,1.239-1.944,2.574-2.361,3.671
c-0.223,0.539-0.229,0.972-0.18,0.997c0.012,0.026,0.03-0.063,0.022-0.093c-0.017-0.039,0.023-0.025,0.121,0.035
c0.209,0.117,0.7,0.351,1.314,0.498c0.616,0.154,1.324,0.279,2.085,0.345c1.507,0.154,3.156,0.146,4.814,0.078
c3.333-0.133,6.761-0.54,10.183-1.056l2.571-0.411l0.643-0.107l0.322-0.054l0.08-0.013c-0.177,0.029-0.025,0.003-0.054,0.007
l0.041-0.008l0.164-0.032l1.307-0.259l2.614-0.518c0.837-0.185,1.613-0.397,2.421-0.592c1.595-0.354,3.217-0.892,4.83-1.367
c0.809-0.235,1.589-0.554,2.385-0.826c0.791-0.285,1.589-0.549,2.36-0.888c3.129-1.225,6.163-2.686,9.142-4.284
c2.999-1.563,5.878-3.418,8.8-5.273c5.804-3.755,11.603-8.006,17.96-11.699c3.184-1.842,6.492-3.544,9.913-5.015
c3.426-1.467,7.009-2.569,10.601-3.49l2.713-0.619c0.903-0.205,1.825-0.312,2.735-0.472c1.818-0.336,3.657-0.479,5.481-0.682
c1.828-0.158,3.657-0.238,5.48-0.305c1.825,0.03,3.646-0.015,5.458,0.082c3.625,0.14,7.221,0.52,10.781,1.016
c1.776,0.292,3.552,0.548,5.311,0.895l5.252,1.125l-0.111,0.792l-5.329-0.161c-1.77-0.065-3.543-0.016-5.306-0.043
c-3.528,0.001-7.04,0.169-10.519,0.423c-1.741,0.117-3.465,0.373-5.189,0.55c-1.711,0.277-3.426,0.495-5.116,0.822
c-3.38,0.656-6.694,1.517-9.92,2.578c-3.212,1.104-6.362,2.345-9.362,3.923c-3.025,1.519-5.957,3.236-8.824,5.121
c-2.856,1.912-5.675,3.946-8.536,6.014c-2.845,2.085-5.747,4.202-8.769,6.24c-3.014,2.046-6.146,4-9.432,5.757
c-0.805,0.461-1.661,0.845-2.492,1.267c-0.835,0.415-1.67,0.831-2.534,1.195l-2.571,1.125l-2.63,0.99
c-0.871,0.346-1.768,0.615-2.658,0.903c-0.895,0.275-1.775,0.596-2.68,0.83c-1.812,0.474-3.585,0.995-5.473,1.356
c-0.925,0.192-1.875,0.408-2.779,0.575l-2.633,0.41l-1.317,0.204l-0.427,0.064l-0.338,0.042l-0.676,0.084l-2.708,0.317
c-3.624,0.391-7.279,0.679-11.053,0.673c-1.892-0.021-3.806-0.108-5.823-0.42c-1.002-0.147-2.043-0.371-3.131-0.715
c-1.082-0.361-2.261-0.819-3.462-1.79c-0.592-0.492-1.195-1.118-1.645-1.936c-0.448-0.794-0.742-1.743-0.787-2.606
c-0.105-1.755,0.4-3.089,0.912-4.156c1.073-2.142,2.418-3.597,3.785-4.985c2.771-2.717,5.663-4.884,8.801-6.956l0.344,4.019
l-4.847-2.37c-0.817-0.377-1.606-0.834-2.448-1.147l-2.513-0.989l-2.527-0.97c-0.422-0.158-0.841-0.332-1.268-0.479l-1.297-0.381
c-1.728-0.518-3.469-1.006-5.212-1.488l-5.325-1.041c-0.889-0.176-1.781-0.333-2.685-0.398l-2.705-0.269l-2.707-0.252
c-0.905-0.049-1.813-0.046-2.72-0.057l-2.721-0.024c-0.907-0.019-1.813-0.022-2.72,0.069l-5.431,0.405
c-1.804,0.213-3.6,0.513-5.395,0.779c-1.799,0.226-3.571,0.681-5.348,1.053c-1.774,0.397-3.554,0.732-5.305,1.254l-5.261,1.438
l-5.22,1.617c-3.472,1.08-6.936,2.245-10.393,3.393l-10.408,3.44c-1.738,0.574-3.481,1.124-5.23,1.668l-5.252,1.645
c-3.501,1.089-7.021,2.161-10.54,3.215c-1.747,0.542-3.601,1.02-5.396,1.528c-1.83,0.448-3.644,0.936-5.5,1.299
c-3.681,0.818-7.46,1.341-11.273,1.625c-0.956,0.063-1.906,0.141-2.875,0.14c-0.964,0.015-1.921,0.051-2.896-0.005
c-0.968-0.04-1.935-0.094-2.909-0.221c-0.968-0.083-1.941-0.254-2.908-0.431c-3.84-0.706-7.8-2.286-10.679-5.244
c-2.889-2.953-4.111-7.159-3.485-10.948L93.489,25.989z"/>
</g>
</svg>

