<?xml version="1.0" encoding="utf-8"?>
<!-- Generator: Adobe Illustrator 16.0.0, SVG Export Plug-In . SVG Version: 6.00 Build 0)  -->
<!DOCTYPE svg PUBLIC "-//W3C//DTD SVG 1.1//EN" "http://www.w3.org/Graphics/SVG/1.1/DTD/svg11.dtd">
<svg version="1.1" id="Layer_1" xmlns="http://www.w3.org/2000/svg" xmlns:xlink="http://www.w3.org/1999/xlink" x="0px" y="0px"
width="378.022px" height="338.461px" viewBox="0 0 378.022 338.461" enable-background="new 0 0 378.022 338.461"
xml:space="preserve">
<g>
<path fill="#414042" d="M207.296,143.94c-0.214,0-0.43-0.011-0.646-0.035c-3.295-0.353-5.68-3.31-5.327-6.604l6.934-64.799
l30.174-8.345c3.193-0.883,6.499,0.989,7.383,4.183c0.883,3.194-0.99,6.499-4.184,7.382l-22.309,6.17l-6.066,56.685
C212.925,141.656,210.323,143.94,207.296,143.94z"/>
</g>
<g>
<path fill="#603913" d="M229.788,183.176c-1.244,0-2.489-0.461-3.459-1.39c-12.297-11.785-16.918-22.201-13.733-30.959
c4.172-11.475,20.282-15.375,28.792-16.649l-10.631-122.63c-6.474,1.188-15.838,4.208-19.43,10.627
c-2.873,5.134-1.908,12.25,2.867,21.147c1.307,2.433,0.393,5.464-2.041,6.771c-2.431,1.304-5.463,0.393-6.77-2.041
c-6.505-12.119-7.436-22.479-2.765-30.792C210.951,2.426,234.038,1,235.016,0.947c2.694-0.138,5.021,1.871,5.254,4.561
l11.5,132.655c0.116,1.338-0.312,2.667-1.186,3.686c-0.874,1.02-2.122,1.645-3.462,1.734c-7.113,0.489-22.621,3.741-25.132,10.666
c-1.652,4.561,2.346,11.775,11.258,20.316c1.993,1.911,2.061,5.076,0.15,7.07C232.417,182.66,231.103,183.176,229.788,183.176z"/>
</g>
<g>
<path fill="#FFFFFF" d="M243.03,134.389c-10.989,8.905-22.024,13.357-33.106,13.357c-6.537,0-12.008-1.801-16.412-5.4
c-4.404-3.599-8.834-9.52-13.285-17.761l-26.287-48.026c-3.79,3.221-9.378,6.962-16.767,11.225v57.689h-24.44v-97.19
c0-12.313-0.759-20.199-2.273-23.658c-1.516-3.457-6.584-5.943-15.203-7.46V9.633l33.107-1.562h8.81v67.493
c10.608-7.104,24.155-20.554,40.638-40.354c10.703-13.072,18.59-21.1,23.658-24.084c5.066-2.983,10.586-4.476,16.554-4.476
c5.115,0,9.851,0.759,14.209,2.273v26.854h-11.367c-2.181-4.262-5.542-6.394-10.089-6.394c-3.979,0-8.147,1.776-12.504,5.329
c-4.357,3.552-13.215,12.623-26.57,27.21l34.102,57.12c5.399,9.094,11.225,13.641,17.477,13.641c4.641,0,9.379-2.225,14.209-6.678
L243.03,134.389z"/>
</g>
<path fill="#1DADAD" d="M213.985,255.996c-2.798-0.813-5.616-1.549-8.446-2.24c-3.776-0.922-7.573-1.753-11.382-2.533
c0.058-1.648,0.099-3.297,0.091-4.94c-0.056-11.707-1.087-23.35-2.849-34.917c-1.771-11.639-4.502-23.041-7.303-34.465
c-0.045-0.186-0.13-1.063-0.316-1.148c-0.47-0.214-0.94-0.429-1.41-0.643c-0.982-0.448-1.964-0.896-2.947-1.344
c-3.269-1.49-6.532-2.979-9.872-4.308c-6.747-2.683-13.62-4.877-20.615-6.807c-7.996-2.206-16.2-3.492-24.438-4.335
c-5.509-0.564-11.104-0.664-16.633-0.384c-3.244,0.164-6.521,0.424-9.704,1.08c-0.615,0.127-1.392,0.294-1.293,1.124
c0.06,0.497,0.447,0.689,0.845,0.862c1.115,0.485,2.231,0.97,3.346,1.455c7.896,3.433,15.799,6.843,23.734,10.185
c13.966,5.883,27.972,11.734,42.08,17.272c1.526,5.419,3.051,10.838,4.577,16.258c2.413,8.57,4.825,17.142,7.248,25.709
c1.214,4.292,2.425,8.583,3.604,12.884c0.593,2.163,1.185,4.326,1.77,6.49c0.498,1.843,1.099,3.713,1.387,5.603
c0.013-0.017,0.068-0.358,0.062-0.336c0.405,0.562,0.891,1.762,1.63,1.752c1.226-0.015,2.451-0.03,3.676-0.045
c0.68-0.009,1.359-0.017,2.039-0.025c0.241,0.335,0.482,0.669,0.724,1.004c0.113-0.334,0.189-0.674,0.251-1.016
c2.003-0.024,4.006-0.05,6.009-0.074c4.445-0.056,8.891-0.111,13.336-0.166c0.192-0.003,0.41,0.022,0.602-0.008
C214.965,257.923,215.043,256.305,213.985,255.996z"/>
<path fill="none" stroke="#414042" stroke-width="10" stroke-miterlimit="10" d="M240.03,69.939"/>
<g>
<path fill="#414042" d="M82.122,337.606c-44.48,0-80.667-36.188-80.667-80.667s36.187-80.667,80.667-80.667
s80.667,36.188,80.667,80.667S126.602,337.606,82.122,337.606z M82.122,188.272c-37.863,0-68.667,30.804-68.667,68.667
s30.804,68.667,68.667,68.667s68.667-30.804,68.667-68.667S119.985,188.272,82.122,188.272z"/>
</g>
<g>
<path fill="#414042" d="M297.039,337.606c-44.479,0-80.667-36.188-80.667-80.667s36.188-80.667,80.667-80.667
s80.667,36.188,80.667,80.667S341.518,337.606,297.039,337.606z M297.039,188.272c-37.863,0-68.667,30.804-68.667,68.667
s30.804,68.667,68.667,68.667s68.667-30.804,68.667-68.667S334.902,188.272,297.039,188.272z"/>
</g>
</svg>

