<?xml version="1.0" encoding="utf-8"?>
<!-- Generator: Adobe Illustrator 16.0.0, SVG Export Plug-In . SVG Version: 6.00 Build 0)  -->
<!DOCTYPE svg PUBLIC "-//W3C//DTD SVG 1.1//EN" "http://www.w3.org/Graphics/SVG/1.1/DTD/svg11.dtd">
<svg version="1.1" id="Layer_1" xmlns="http://www.w3.org/2000/svg" xmlns:xlink="http://www.w3.org/1999/xlink" x="0px" y="0px"
width="116.667px" height="147.938px" viewBox="0 0 116.667 147.938" enable-background="new 0 0 116.667 147.938"
xml:space="preserve">
<g>
<path fill="#FFFFFF" d="M6.137,141.292c5.93-7.496,11.655-16.698,17.176-27.604l32.818-64.308
C52.656,35.75,49.4,26.173,46.368,20.652c-3.033-5.521-7.686-8.281-13.955-8.281c-5.794,0-11.315,2.863-16.562,8.588l-5.01-5.521
C20.247,5.147,29.549,0,38.751,0c6.405,0,11.382,1.824,14.927,5.47c3.543,3.647,6.508,9.457,8.895,17.432
c2.385,7.974,5.759,23.378,10.121,46.211c5.657,29.787,10.07,48.58,13.24,56.385c3.169,7.805,6.935,11.705,11.297,11.705
c3.134,0,6.032-1.089,8.69-3.271l3.885,6.135c-6.748,5.249-12.814,7.872-18.198,7.872c-7.634,0-13.086-3.919-16.358-11.757
c-3.271-7.838-7.838-28.934-13.699-63.286h-0.613C49.349,96.409,38,120.88,26.892,146.302H6.137V141.292z"/>
</g>
<circle fill="#3C2415" cx="93.076" cy="52.442" r="23.588"/>
<path fill="#C03827" d="M111.145,66.912c-1.318-3.062-2.556,0.592-1.204,2.917c1.352,2.326,2.512,12.23,1.441,12.75
c-1.073,0.521-2.429,1.322-2.429,1.322l-0.526,0.369c-4.933,0.29-2.428,5.318,0.164,5.126c2.591-0.193,7.415-2.726,7.518-5.413
C116.212,81.296,112.465,69.973,111.145,66.912z"/>
<path fill="#C03827" d="M109.432,104.105c0,0-9.196-5.253-11.859-6.759c-2.665-1.506-3.771,0.041-7.035,5.335
c-3.266,5.294-5.044,8.656-5.867,9.044c-0.132,0.062-0.241,0.127-0.343,0.191l-0.032-0.039c0,0-1.447-0.715-2.249-1.418
c-0.803-0.703-0.889-1.484-1.374-1.102c-0.486,0.383-0.291,0.954,0.179,1.629c0.47,0.674,0.875,0.893,0.906,2.011
c0.029,1.116,0.89,2.343,1.586,2.067c0.64-0.252,1.541-1.139,2.19-1.336c0.402-0.056,0.812-0.217,1.158-0.536
c2.08-1.911,6.524-2.427,8.839-9.376c0.066,0.331,0.306,0.832,0.929,1.6C98.034,107.353,111.46,117.114,109.432,104.105z"/>
<path fill="#F05729" d="M113.639,108.843c0-0.494-0.099-0.96-0.244-1.405c0.376-5.424,0.478-10.614-0.919-16.157
c-0.938-3.724-2.169-5.739-2.899-6.684c1.266-0.805,2.512-2.522,3.509-5.871c0.768-2.574-4.94-5.032-7.15-2.513
c-1.641,1.87,0.251,2.335-1.701,3.291c-1.051,0.517-1.078,0.901-0.184,1.214c1.244,0.434-1.785,2.867,0.013,3.535
c0.187,0.069,0.404,0.163,0.645,0.265c-0.326,0.22-0.689,0.468-1.114,0.755l0,0c-2.02,0.192-4.972,0.561-6.28,1.154
c-2.082,0.948-0.403-0.242-0.403-0.242s-3.66-12.658-2.943-14.081c0,0-0.94-0.494-1.672,2.779
c-0.73,3.272,0.995,13.661,2.348,14.613c1.061,0.745,5.314,1.216,8.761,0.729c0.786,1.984,1.933,4.031,2.062,5.261
c0.354,3.388,0.29,6.247,0.127,8.569c-0.665,0.616-1.29,1.562-1.827,2.949c-2.02,5.211-2.258,9.033-2.86,12.961
c-0.602,3.927,2.717,13.951,2.061,15.436c0,0-1.412,0.861-2.485,1.174c-1.072,0.312-1.854-0.034-1.74,0.59
c0.111,0.625,0.75,0.764,1.626,0.722s1.29-0.274,2.358,0.3c1.067,0.574,2.661,0.494,2.759-0.252s-0.362-2.17-0.097-2.77
c0.265-0.599,2.739-9.541,0.43-13.004c0,0,2.055-4.025,4.276-8.896C112.12,112.812,113.639,111.009,113.639,108.843z"/>
<path fill="#C03827" d="M104.1,104.448c-0.011,0.012,0.125-0.111,0.351-0.262c0.224-0.155,0.551-0.355,0.972-0.541
c0.414-0.197,0.937-0.348,1.502-0.432c0.287-0.029,0.581-0.059,0.882-0.027c0.301-0.004,0.597,0.084,0.892,0.141
c0.287,0.087,0.569,0.195,0.833,0.316c0.25,0.151,0.511,0.273,0.729,0.44c0.212,0.171,0.418,0.336,0.612,0.493
c0.171,0.18,0.332,0.35,0.481,0.508c0.309,0.301,0.482,0.623,0.644,0.812c0.147,0.201,0.231,0.314,0.231,0.314
s-0.097-0.104-0.266-0.287c-0.18-0.173-0.385-0.468-0.72-0.729c-0.161-0.136-0.335-0.284-0.52-0.44
c-0.201-0.128-0.413-0.264-0.634-0.404c-0.222-0.134-0.478-0.219-0.72-0.334c-0.254-0.082-0.517-0.151-0.778-0.201
c-0.268-0.019-0.53-0.07-0.792-0.035c-0.26,0-0.512,0.055-0.753,0.105c-0.477,0.129-0.905,0.301-1.243,0.512
c-0.341,0.197-0.603,0.4-0.772,0.549c-0.174,0.147-0.24,0.227-0.252,0.235L104.1,104.448z"/>
<path fill="#3C2415" d="M113.962,76.766c-0.15-0.324-0.357-0.538-0.56-0.71l0.055,0.056c-0.507-0.456-1.185-0.755-1.869-0.493
c-0.132-0.262-0.437-0.64-0.641-0.866c-1.024-1.055-2.444-0.288-3.315,0.465c-0.057-0.103-0.131-0.215-0.256-0.332
c-0.342-0.284-0.586-0.296-0.767-0.333c-0.758-0.086-1.547,0.128-2.164,0.594c-0.358,0.297-0.733,0.73-0.813,1.41
c-0.025,0.338,0.039,0.719,0.219,1c0.839,1.518,5.188,1.166,5.16-0.586c0.032,2.037,0.969,3.586,2.815,4.348
c-0.025,0.197,0.041,0.359,0.198,0.489l0.178-0.092c-0.023-0.091-0.021-0.17,0.008-0.2c0.415-0.771,1.223-1.243,1.584-2.144
c0.131-0.319,0.118-0.618-0.038-0.899C114.133,77.962,114.202,77.394,113.962,76.766C113.812,76.441,114.12,77.086,113.962,76.766z
M107.333,75.411c0.014-0.012,0.047-0.019,0.08-0.023C107.392,75.407,107.366,75.415,107.333,75.411
C107.347,75.399,107.299,75.435,107.333,75.411z"/>
</svg>

