<?xml version="1.0" encoding="utf-8"?>
<!-- Generator: Adobe Illustrator 16.0.0, SVG Export Plug-In . SVG Version: 6.00 Build 0)  -->
<!DOCTYPE svg PUBLIC "-//W3C//DTD SVG 1.1//EN" "http://www.w3.org/Graphics/SVG/1.1/DTD/svg11.dtd">
<svg version="1.1" id="Layer_1" xmlns="http://www.w3.org/2000/svg" xmlns:xlink="http://www.w3.org/1999/xlink" x="0px" y="0px"
width="294.667px" height="306.924px" viewBox="0 0 294.667 306.924" enable-background="new 0 0 294.667 306.924"
xml:space="preserve">
<path fill="#3C2415" d="M129.033,225.358c0,0,10.146-1.177,19.559-2.059c9.414-0.882,18.531,0.589,20.003,6.179
c1.471,5.588-2.878,16.1-8.173,20.309c-5.295,4.209-12.915-2.137-29.772,1.752C120.358,253.912,120.063,229.184,129.033,225.358z"/>
<g>
<path fill="#FFFFFF" d="M105.377,80.859c0,18.361,1.952,30.299,5.859,35.815c3.905,5.519,10.254,8.276,19.043,8.276
c7.031,0,14.136-3.465,21.313-10.4c7.178-6.933,10.767-14.696,10.767-23.291V0h25.195v109.863c0,11.426,3.516,17.139,10.547,17.139
c4.296,0,8.885-2.051,13.77-6.152l5.713,8.789c-10.254,8.496-20.508,12.744-30.762,12.744c-14.553,0-22.463-8.35-23.73-25.049
l-1.318-0.439c-14.747,16.406-28.81,24.609-42.188,24.609c-7.423,0-14.062-2.831-19.922-8.496l-1.172,0.879
c1.659,19.433,4.149,35.596,7.471,48.486v8.057l-12.744,8.496H80.182V0.146h25.195V80.859z"/>
</g>
<path fill="#ED1C24" d="M168.664,195.706c0,0,10.156-13.387,22.159-13.85c12.004-0.46,12.002,13.85,3.231,11.543
C185.283,191.092,171.896,190.629,168.664,195.706z"/>
<path fill="#ED1C24" d="M122.499,188.776c0,0-5.54,4.16-3.693,10.162c0,0,9.233-1.385,13.388,0
C136.349,200.323,128.039,187.849,122.499,188.776z"/>
<path fill="#3C2415" d="M221.801,164.248c0,0,44.892-41.607,57.144-40.964c12.252,0.644,28.002,47.209,0.038,42.576
C251.021,161.227,222.175,161.513,221.801,164.248z"/>
<path fill="#3C2415" d="M164.045,174.244c-0.107,0.073,0.455,1.134,0.492,1.193c0.444,0.721,1.166,1.336,2.065,1.258
c1.75-0.153,3.191-2.003,4.229-3.239c2.623-3.126,5.624-5.783,9.068-7.979c5.875-3.746,13.383-6.529,20.377-4.736
c-7.366,1.908-13.904,5.235-20.157,9.576c-1.56,1.081-3.086,2.218-4.562,3.41c-1.676,1.355-3.205,2.932-5.133,3.938
c-1.526,0.797-3.474,1.345-5.038,0.324C164.173,177.198,163.709,175.614,164.045,174.244z"/>
<path fill="#3C2415" d="M136.351,174.846c0.109,1.655-0.544,3.51-1.976,4.443c-1.917,1.248-4.191,0.132-6.111-0.515
c-2.279-0.767-4.545-1.575-6.807-2.393c-1.772-0.641-3.645-1.382-5.538-1.536c-0.077-0.724,4.236-0.735,4.608-0.715
c2.265,0.121,4.521,0.645,6.67,1.354c1.802,0.596,3.519,1.722,5.341,2.182C134.269,178.103,135.611,176.118,136.351,174.846z"/>
<path fill="#3C2415" d="M130.924,251.569c-0.063,0,0.391,3.057,0.456,3.354c0.382,1.764,1.07,3.728,2.542,4.879
c1.475,1.153,3.519,0.854,5.271,0.858c2.008,0.007,4.018-0.032,6.025-0.053c8.525-0.082,17.053-0.197,25.572,0.218
c8.728,0.426,17.92,1.462,26.543-0.439c3.984-0.878,6.254-3.562,8.006-7.108c1.881-3.811,3.32-7.812,5.462-11.496
c4.106-7.06,10.057-13.012,17.024-17.256c3.416-2.081,6.939-3.873,10.133-6.316c3.321-2.541,6.313-5.5,8.857-8.822
c4.877-6.372,7.981-13.995,9.19-21.915c0.467-3.062,0.718-6.229,0.559-9.326c-0.003-0.064,0.539-0.142,0.556-0.077
c0.126,0.508,0.231,1.021,0.331,1.531c0.341,1.748,0.565,3.512,0.669,5.29c0.96,16.526-7.585,32.323-21.405,41.254
c-3.33,2.151-6.849,3.974-10.088,6.271c-3.306,2.345-6.362,5.038-9,8.12c-2.64,3.086-4.895,6.478-7.104,9.876
c-2.167,3.334-4.252,7.017-7.508,9.424c-2.909,2.152-6.604,2.476-10.077,2.946c-3.764,0.51-7.542,0.893-11.315,1.329
c-7.791,0.901-15.569,1.53-23.419,1.388c-7.178-0.13-14.611-0.28-21.705-1.479c-3.422-0.579-5.616-2.8-6.332-6.163
c-0.282-1.323-0.272-2.651-0.176-3.993C130.031,253.287,129.92,251.146,130.924,251.569z"/>
<path fill="#3C2415" d="M158.116,262.593c-6.752,9.474-6.185,19.388,1.453,28.148c-0.03-0.571-1.678-18.932,1.96-14.077
c0.895,2.222,3.52,24.047,8.931,30.26c-1.687-6.501,4.237-29.761,9.636-31.099c3.209-0.795,5.552,13.34,1.424,15.083
c13.176-5.568,2.115-26.464,15.711-30.017C188.218,263.262,167.26,264.708,158.116,262.593z"/>
<path d="M137.282,237.423c0,0-3.723-0.619-5.272-2.479c-1.55-1.859-7.125,0.31-3.872,2.479
C131.39,239.592,133.876,239.282,137.282,237.423z"/>
<path d="M145.421,237.993c0,0,5.373-0.896,7.609-3.578c2.235-2.684,10.28,0.447,5.587,3.578
C153.924,241.123,150.336,240.676,145.421,237.993z"/>
<path fill="#F7941E" d="M155.026,237.149c6.957,1.745,11.83,8.138,12.664,15.128c0.755,6.335-2.262,12.036-7,16.117
c-6.125,5.279-14.175,7.641-22.182,6.359c-7.724-1.234-15.294-6.142-17.948-13.752c-2.571-7.374,0.143-16.089,6.246-20.89
c1.283-1.009,2.705-1.849,4.222-2.451c0.554-0.22,1.123-0.386,1.692-0.562c0.465-0.144,0.104,0.643-0.039,0.762
c-2.729,2.31-4.969,5.108-6.314,8.447c-2.986,7.414-0.674,15.57,5.709,20.356c3.143,2.357,6.928,3.742,10.73,4.609
c4.162,0.949,8.434,1.12,12.29-0.982c5.674-3.09,7.972-9.885,7.735-16.062c-0.141-3.626-0.916-7.052-2.748-10.22
c-0.887-1.532-1.943-2.957-3.145-4.257C156.46,239.236,154.293,237.844,155.026,237.149z"/>
<path fill="#F15A29" d="M189.516,187.415c0,2.032-1.646,3.68-3.678,3.68c-2.03,0-3.677-1.647-3.677-3.68
c0-2.029,1.646-3.676,3.677-3.676C187.869,183.739,189.516,185.386,189.516,187.415z"/>
<circle fill="#F15A29" cx="124.57" cy="194.329" r="3.237"/>
</svg>

