<?xml version="1.0" encoding="utf-8"?>
<!-- Generator: Adobe Illustrator 16.0.0, SVG Export Plug-In . SVG Version: 6.00 Build 0)  -->
<!DOCTYPE svg PUBLIC "-//W3C//DTD SVG 1.1//EN" "http://www.w3.org/Graphics/SVG/1.1/DTD/svg11.dtd">
<svg version="1.1" id="Layer_1" xmlns="http://www.w3.org/2000/svg" xmlns:xlink="http://www.w3.org/1999/xlink" x="0px" y="0px"
width="199.578px" height="216.348px" viewBox="0 0 199.578 216.348" enable-background="new 0 0 199.578 216.348"
xml:space="preserve">
<path fill="#603913" d="M115.999,90.067c0.18,0,0.819,1.517,0.893,1.662c0.658,1.292,1.275,2.607,1.857,3.935
c1.164,2.658,2.217,5.361,3.194,8.093c1.054,2.944,1.737,5.97,2.467,9.004c0.747,3.102,1.695,6.135,2.878,9.1
c1.211,3.036,2.645,5.979,3.861,9.012c1.18,2.939,2.303,5.915,3.375,8.896c1.979,5.508,3.596,11.162,4.903,16.866
c0.257,1.123,0.501,2.248,0.716,3.38c0.027,0.144,0.484,1.575-0.054,1.399c-0.285-0.093-0.747-1.427-0.868-1.67
c-0.557-1.115-1.088-2.244-1.605-3.379c-2.471-5.422-4.654-10.988-6.454-16.668c-0.958-3.022-1.918-6.062-2.74-9.123
c-0.825-3.072-1.492-6.184-2.41-9.23c-1.808-5.996-4.936-11.438-6.829-17.396c-0.881-2.77-1.707-5.557-2.387-8.383
c-0.326-1.355-0.626-2.719-0.871-4.091C115.867,91.153,115.438,90.083,115.999,90.067z"/>
<path fill="#931B25" d="M131.289,134.357c0,0,13.023,1.318,15.068,8.008c3.316,10.854,3.542,9.625,3.542,9.625
s37.115-61.923,9.473-115.258C159.372,36.732,123.75,132.404,131.289,134.357z"/>
<path fill="#931B25" d="M126.254,116.625c0,0,1.954-8.196-1.363-13.501c-2.158-3.451-6.658-5.8-6.658-5.8
s20.483-17.242,12.575-53.121c0,0,8.759,15.121,10.425,28.121C142.899,85.324,137.943,108.259,126.254,116.625z"/>
<path fill="#D25141" d="M140.63,4.937c0,0,7.259,1.333,18.081,23.554l-12.347-4.005L140.63,4.937z"/>
<path fill="#931B25" d="M43.356,52.259c0,0,9.671,19.344,2.546,28.716c-5.256,6.915-11.238,9.14-11.238,9.14
s15.446-4.642,29.317,10.75C78.871,117.387,57.481,51.528,43.356,52.259z"/>
<path fill="#931B25" d="M140.82,5.343c0,0,12.486,9.142,9.699,19.123c0,0-4.367,0.986-5.345-0.381S140.63,4.937,140.63,4.937"/>
<path fill="#931B25" d="M139.047,4.293c0,0,1.852,15.599-3.814,17.815l10.024,2.13L139.047,4.293z"/>
<path fill="#603913" d="M34.743,88.862c4.657,1.772,9.075,4.251,13.387,6.725c5.371,3.08,10.039,7.173,15.373,10.299
c5.502,3.323,11.407,5.969,17.011,9.122c5.406,3.04,10.675,6.254,15.769,9.795c2.133,1.481,4.237,3.003,6.299,4.582
c0.782,0.6,1.559,1.209,2.316,1.842c0.427,0.355-0.156,0.327-0.429,0.213c-4.907-2.064-9.637-4.578-14.291-7.15
c-5.513-3.047-10.865-6.454-16.068-10.004c-5.267-3.593-10.268-7.446-15.975-10.35c-2.402-1.222-4.864-2.325-7.229-3.621
c-2.354-1.289-4.625-2.737-6.86-4.221c-2.114-1.403-4.2-2.845-6.222-4.378c-0.882-0.668-1.756-1.346-2.605-2.056
C34.981,89.461,34.375,89.187,34.743,88.862z"/>
<path fill="#931B25" d="M69.824,43.351c0,0,35.408,20.14,37.658,60.64l-5.323,25.456c0,0,9.023-4.235,1.261-7.456
c-3.178-1.318-12.188,1.5-12.188,1.5L69.824,43.351z"/>
<path fill="#603913" d="M147.318,39.002c-0.77-2.076-1.265-4.308-1.657-6.482c-0.521-2.884-0.49-5.79-0.945-8.671
c-0.493-3.116-1.703-6.038-2.623-9.041c-0.846-2.759-1.68-5.528-2.57-8.273c-0.404-1.242-0.832-2.47-1.25-3.707
c-0.206-0.606-0.457-1.182-0.707-1.771c-0.109-0.257-0.413-0.719-0.413-1.008c0.19-0.354,1.423,1.261,1.562,1.43
c0.928,1.131,1.614,2.489,2.263,3.791c1.249,2.684,2.133,5.449,2.747,8.346c0.658,3.107,0.846,6.271,1.467,9.381
c0.625,3.137,1.791,6.064,2.169,9.263C147.437,32.912,148.044,39,147.318,39.002z"/>
<path fill="#D25141" d="M38.301,8.918c0,0,7.379-0.146,22.428,19.459l-12.898-1.453L38.301,8.918z"/>
<path fill="#931B25" d="M38.569,9.277c0,0,14.063,6.458,13.329,16.795c0,0-4.081,1.84-5.312,0.697
c-1.231-1.144-8.285-17.851-8.285-17.851"/>
<path fill="#931B25" d="M36.621,8.604c0,0,4.937,14.913-0.172,18.218l10.249,0.081L36.621,8.604z"/>
<path fill="#603913" d="M51.67,40.956c-1.169-1.881-2.1-3.967-2.921-6.02c-1.074-2.683-1.624-5.491-2.619-8.191
c-1.065-2.889-2.775-5.436-4.244-8.123c-1.391-2.547-2.784-5.096-4.192-7.633c-1.173-2.113-2.454-4.118-3.766-6.144
c-0.133-0.205,0.238-0.088,0.29-0.051c0.432,0.303,0.854,0.619,1.271,0.94c1.164,0.789,2.138,2.059,2.995,3.157
c1.813,2.324,3.246,4.878,4.435,7.571c1.233,2.795,2.013,5.729,3.173,8.546c1.27,3.081,3.102,5.852,4.166,9.023
C50.473,34.67,52.405,40.803,51.67,40.956z"/>
<path fill="#754C29" d="M0,171.854c0,0,16.496,20.873,34.463,38.086c0,0,103.502-9.154,121.283-12.083
c17.781-2.931,21.56-26.003,21.56-26.003H0z"/>
<path fill="#3C2415" d="M0,171.854c0,0,87.062,10.108,139.494,6.702c52.43-3.407,50.026-13.567-5.289-18.373
C78.891,155.376,28.38,152.444,0,171.854z"/>
<path fill="#603913" d="M34.437,27.275c1.906-0.83,4.149-1.114,6.208-1.191c1.476-0.055,2.908,0.289,4.367,0.438
c1.453,0.148,2.913,0.072,4.361-0.089c2.867-0.343,5.963-0.303,8.777,0.39c1.276,0.314,2.519,0.708,3.724,1.235
c0.303,0.133,2.259,1.022,2.138,1.336c-0.119,0.308-1.836-0.095-2.155-0.133c-1.312-0.158-2.631-0.273-3.944-0.424
c-2.88-0.33-5.727-0.831-8.583-1.31c-1.421-0.273-2.871-0.412-4.315-0.253c-1.479,0.163-2.917,0.567-4.411,0.614
C39.881,27.91,34.479,28.083,34.437,27.275z"/>
<g>
<path fill="#FFFFFF" d="M30.612,36.732H66.94c11.522,25.294,23.485,65.236,35.889,119.825
c22.167-30.762,33.252-58.008,33.252-81.739c0-11.522-1.758-21.728-5.273-30.615v-7.471h28.564
c1.073,6.544,1.611,13.087,1.611,19.629c0,17.285-4.005,34.497-12.012,51.636c-8.009,17.138-22.657,40.503-43.945,70.093H85.544
c-9.375-35.742-17.798-64.574-25.269-86.5c-7.471-21.922-13.11-35.033-16.919-39.331c-3.809-4.296-8.057-6.885-12.744-7.764V36.732
z"/>
</g>
<path fill="#D25141" d="M159.372,36.732c0,0,9.74,18.59,6.809,55.893c-4.401,56-22.634,61.386-26.948,64.365
c0,0,8.615-0.865,13.448-3.115s22.719-7.801,18.552-71.051C170.59,73.075,166.857,42.491,159.372,36.732z"/>
<path fill="#603913" d="M133.17,22.15c0-0.173,2.417-0.222,2.658-0.221c1.329,0,2.69,0.094,3.995,0.357
c1.396,0.281,2.688,0.89,4.045,1.299c1.334,0.401,2.719,0.603,4.104,0.728c2.761,0.228,5.677,0.847,8.21,1.994
c1.201,0.543,2.335,1.18,3.431,1.912c0.284,0.178,2.237,1.493,2.164,1.841c-0.089,0.427-1.851-0.382-2.139-0.478
c-1.255-0.417-2.522-0.794-3.78-1.204c-2.756-0.899-5.444-1.959-8.147-3.001c-1.338-0.552-2.729-0.979-4.177-1.112
c-1.445-0.133-2.899-0.029-4.338-0.263C138.442,23.878,133.054,22.962,133.17,22.15z"/>
<path fill="#D25141" d="M102.159,129.446c0,0,8.823-54.956-32.335-86.096c0,0,52.904,26.623,41.127,81.317
c-0.529,2.463-1.451,2.592-3.969,3.572C104.325,129.275,102.159,129.446,102.159,129.446z"/>
<path fill="#68C8C8" d="M17.69,203.931c-12.611,13.327,41.725,1.767,50.194,1.133c8.98-0.672,118.729-19.521,118.729-4.467
c-35.862,10.914-80.604-0.085-118.353,7.267c-15.41,3.001-38.765,12.651-54.296,6.441C4.026,210.771,13.393,204.176,17.69,203.931z"
/>
</svg>

