<?xml version="1.0" encoding="utf-8"?>
<!-- Generator: Adobe Illustrator 16.0.0, SVG Export Plug-In . SVG Version: 6.00 Build 0)  -->
<!DOCTYPE svg PUBLIC "-//W3C//DTD SVG 1.1//EN" "http://www.w3.org/Graphics/SVG/1.1/DTD/svg11.dtd">
<svg version="1.1" id="Layer_1" xmlns="http://www.w3.org/2000/svg" xmlns:xlink="http://www.w3.org/1999/xlink" x="0px" y="0px"
width="190.403px" height="237.123px" viewBox="0 0 190.403 237.123" enable-background="new 0 0 190.403 237.123"
xml:space="preserve">
<g>
<path fill="#FFFFFF" d="M94.917,212.967c-7.863,16.105-21.172,24.156-39.927,24.156c-17.241,0-30.716-5.471-40.425-16.412
C4.854,209.77,0,194.591,0,175.171c0-31.069,16.625-57.451,49.874-79.145l7.815,9.662c-20.178,15.726-30.266,39.359-30.266,70.903
c0,16.578,2.65,28.939,7.957,37.086c5.304,8.148,12.455,12.22,21.455,12.22c8.243,0,14.612-3.29,19.112-9.876
c4.498-6.582,6.75-15.842,6.75-27.778v-49.447h24.723v49.447c0,12.127,2.273,21.434,6.82,27.921
c4.547,6.49,10.893,9.733,19.041,9.733c9.471,0,16.789-4.214,21.953-12.646c5.162-8.431,7.744-20.65,7.744-36.66
c0-16.482-2.395-30.146-7.176-40.993c-4.785-10.846-12.576-20.816-23.375-29.91l8.242-9.662
c33.154,22.262,49.732,48.737,49.732,79.429c0,19.704-5.045,34.908-15.133,45.611c-10.09,10.705-23.471,16.057-40.141,16.057
C116.75,237.123,103.346,229.072,94.917,212.967z"/>
</g>
<g>
<g>

<rect x="153.824" y="9.87" transform="matrix(0.6024 0.7982 -0.7982 0.6024 70.0314 -119.3551)" fill="#4D6087" width="2" height="1.5"/>
</g>
<g>
<path fill="#4D6087" d="M69.816,87.658l-1.472-1.354l2.115-2.298l1.472,1.354L69.816,87.658z M77.572,79.231L76.1,77.877
l2.115-2.298l1.472,1.354L77.572,79.231z M85.328,70.804l-1.472-1.354l2.115-2.298l1.472,1.354L85.328,70.804z M93.084,62.377
l-1.472-1.354l2.115-2.298l1.472,1.354L93.084,62.377z M100.839,53.95l-1.471-1.354l2.115-2.298l1.471,1.354L100.839,53.95z
M109.12,46.369l-1.205-1.597l2.493-1.882l1.205,1.597L109.12,46.369z M118.261,39.469l-1.205-1.597l2.493-1.882l1.205,1.597
L118.261,39.469z M127.403,32.569l-1.205-1.597l2.493-1.882l1.205,1.597L127.403,32.569z M136.544,25.669l-1.205-1.597
l2.493-1.882l1.205,1.597L136.544,25.669z M145.686,18.77l-1.205-1.597l2.493-1.882l1.205,1.597L145.686,18.77z"/>
</g>
<g>
<polygon fill="#4D6087" points="62.845,95.966 61.013,94.269 62.704,92.432 64.175,93.787 63.834,94.157 64.204,94.499 		"/>
</g>
<g>
<path fill="#4D6087" d="M86.828,118.168l-2.18-2.019l1.358-1.468l2.18,2.019L86.828,118.168z M78.834,110.767l-2.18-2.018
l1.358-1.468l2.18,2.018L78.834,110.767z M70.839,103.367l-2.18-2.019l1.358-1.468l2.18,2.019L70.839,103.367z"/>
</g>
<g>
<polygon fill="#4D6087" points="94.402,125.179 92.643,123.55 94.002,122.083 94.443,122.491 94.896,122.096 96.21,123.604 		"/>
</g>
<g>
<path fill="#4D6087" d="M102.404,118.208l-1.314-1.508l2.322-2.023l1.314,1.508L102.404,118.208z M110.919,110.79l-1.314-1.508
l2.322-2.023l1.314,1.508L110.919,110.79z M119.435,103.371l-1.314-1.508l2.322-2.023l1.314,1.508L119.435,103.371z"/>
</g>
<g>
<polygon fill="#4D6087" points="127.951,95.952 126.636,94.444 127.169,93.979 126.839,93.354 128.607,92.419 129.679,94.446 		
"/>
</g>
<g>
<path fill="#4D6087" d="M122.951,85.993l-1.459-2.76l1.768-0.935l1.459,2.76L122.951,85.993z M117.603,75.871l-1.459-2.76
l1.768-0.935l1.459,2.76L117.603,75.871z M112.254,65.75l-1.458-2.76l1.768-0.935l1.458,2.76L112.254,65.75z"/>
</g>
<g>

<rect x="106.691" y="53.497" transform="matrix(0.4669 0.8843 -0.8843 0.4669 105.4688 -65.9583)" fill="#4D6087" width="1.5" height="2.001"/>
</g>
</g>
<polygon fill="#F9DEAA" points="62.424,88.333 64.334,92.204 68.606,92.825 65.514,95.839 66.245,100.093 62.424,98.084 
58.603,100.093 59.333,95.839 56.241,92.825 60.514,92.204 "/>
<polygon fill="#F9DEAA" points="94.422,109.455 98.649,118.019 108.1,119.392 101.26,126.057 102.875,135.469 94.422,131.025 
85.971,135.469 87.584,126.057 80.747,119.392 90.196,118.019 "/>
<polygon fill="#F9DEAA" points="128.424,88.333 130.334,92.204 134.606,92.825 131.514,95.839 132.245,100.093 128.424,98.084 
124.602,100.093 125.333,95.839 122.241,92.825 126.514,92.204 "/>
<polygon fill="#F9DEAA" points="104.18,42.964 106.09,46.835 110.362,47.456 107.27,50.47 108,54.724 104.18,52.715 100.358,54.724 
101.088,50.47 97.997,47.456 102.27,46.835 "/>
<polygon fill="#F9DEAA" points="163.424,0 165.334,3.871 169.606,4.492 166.514,7.506 167.245,11.76 163.424,9.75 159.602,11.76 
160.333,7.506 157.241,4.492 161.514,3.871 "/>
</svg>

