<?xml version="1.0" encoding="utf-8"?>
<!-- Generator: Adobe Illustrator 16.0.0, SVG Export Plug-In . SVG Version: 6.00 Build 0)  -->
<!DOCTYPE svg PUBLIC "-//W3C//DTD SVG 1.1//EN" "http://www.w3.org/Graphics/SVG/1.1/DTD/svg11.dtd">
<svg version="1.1" id="Layer_1" xmlns="http://www.w3.org/2000/svg" xmlns:xlink="http://www.w3.org/1999/xlink" x="0px" y="0px"
width="128.467px" height="144.873px" viewBox="0 0 128.467 144.873" enable-background="new 0 0 128.467 144.873"
xml:space="preserve">
<ellipse fill="#49A555" cx="65.869" cy="71.934" rx="41.75" ry="66.25"/>
<g>
<path fill="#FFFFFF" d="M62.549,144.873c-20.313,0-35.815-5.98-46.509-17.944C5.347,114.967,0,97.266,0,73.828
c0-16.113,2.806-29.736,8.423-40.869C14.037,21.826,21.728,13.55,31.494,8.13C41.258,2.71,52.391,0,64.893,0
c20.896,0,36.717,6.079,47.461,18.237c10.741,12.158,16.113,29.615,16.113,52.368c0,16.212-2.688,29.883-8.057,41.016
c-5.372,11.133-12.989,19.459-22.852,24.976C87.693,142.115,76.025,144.873,62.549,144.873z M27.686,70.752
c0,20.119,3.197,35.572,9.595,46.362c6.395,10.792,15.55,16.187,27.466,16.187c6.541,0,12.107-1.586,16.699-4.761
c4.589-3.173,8.324-7.445,11.206-12.817c2.88-5.369,4.955-11.596,6.226-18.677c1.268-7.079,1.904-14.477,1.904-22.192
c0-14.355-1.588-26.269-4.761-35.742c-3.175-9.471-7.496-16.429-12.964-20.874c-5.471-4.442-11.719-6.665-18.75-6.665
c-11.817,0-20.874,5.127-27.173,15.381S27.686,51.808,27.686,70.752z"/>
</g>
<path d="M64.307,13.517c2.818,4.217,4.895,9.02,6.685,13.747c2.097,5.538,3.71,11.255,4.925,17.049
c2.637,12.563,3.396,25.523,2.579,38.326c-0.603,9.437-2.143,18.834-4.794,27.916c-2.18,7.465-5.022,15.251-9.395,21.746
c-2.623-3.896-4.579-8.316-6.298-12.672c-2.178-5.52-3.852-11.234-5.119-17.029c-2.741-12.533-3.559-25.465-2.821-38.26
c0.547-9.487,2.024-18.934,4.602-28.086C56.871,28.441,59.769,20.309,64.307,13.517z"/>
<ellipse transform="matrix(0.9225 -0.3861 0.3861 0.9225 -6.1969 34.2686)" fill="#83B541" cx="82.216" cy="32.562" rx="5.459" ry="12.053"/>
</svg>

