<?xml version="1.0" encoding="utf-8"?>
<!-- Generator: Adobe Illustrator 16.0.0, SVG Export Plug-In . SVG Version: 6.00 Build 0)  -->
<!DOCTYPE svg PUBLIC "-//W3C//DTD SVG 1.1//EN" "http://www.w3.org/Graphics/SVG/1.1/DTD/svg11.dtd">
<svg version="1.1" id="Layer_1" xmlns="http://www.w3.org/2000/svg" xmlns:xlink="http://www.w3.org/1999/xlink" x="0px" y="0px"
width="215.856px" height="166.627px" viewBox="0 0 215.856 166.627" enable-background="new 0 0 215.856 166.627"
xml:space="preserve">
<path fill="#D25241" d="M142.353,6.691c-17.525,0-32.292,11.354-36.852,26.85c-4.56-15.496-19.327-26.85-36.853-26.85
c-21.161,0-38.315,24.264-38.315,44.673c0,36.327,60.154,75.759,73.705,75.759c14.526,0,76.629-38.099,76.629-75.759
C180.668,30.955,163.514,6.691,142.353,6.691z"/>
<g>
<path fill="#FFFFFF" d="M112.025,125.612v41.016H95.716v-41.016c-33.659-1.431-50.488-15.884-50.488-43.359
c0-20.442,11.426-38.184,34.277-53.223l5.762,6.836C71.009,46.869,63.88,61.583,63.88,80.006c0,23.308,10.611,35.84,31.836,37.598
V75.221c0-14.126,3.091-25.293,9.277-33.496c6.185-8.203,14.941-12.305,26.27-12.305c10.415,0,19.025,3.776,25.83,11.328
c6.802,7.553,10.205,18.034,10.205,31.445c0,16.733-4.688,29.673-14.062,38.818C143.861,120.16,130.123,125.026,112.025,125.612z
M112.025,117.995c24.673-1.367,37.012-16.763,37.012-46.191c0-10.806-1.743-19.205-5.225-25.195
c-3.484-5.989-8.188-8.984-14.111-8.984c-4.429,0-8.14,1.645-11.133,4.932c-2.995,3.288-4.834,7.683-5.518,13.184
c-0.684,5.502-1.025,14.274-1.025,26.318V117.995z"/>
</g>
<path fill="#931A26" d="M212.562,7.619c-2.933-1.643-6.468-1.127-8.684,1.039c0.689-3.021-0.718-6.305-3.649-7.947
c-3.541-1.984-8.687,0.469-10.6,3.884c-3.404,6.079,2.965,18.315,5.232,19.586c2.432,1.361,16.395,0.807,19.924-5.495
C216.698,15.271,216.103,9.602,212.562,7.619z"/>
</svg>

