<?xml version="1.0" encoding="utf-8"?>
<!-- Generator: Adobe Illustrator 16.0.0, SVG Export Plug-In . SVG Version: 6.00 Build 0)  -->
<!DOCTYPE svg PUBLIC "-//W3C//DTD SVG 1.1//EN" "http://www.w3.org/Graphics/SVG/1.1/DTD/svg11.dtd">
<svg version="1.1" id="Layer_1" xmlns="http://www.w3.org/2000/svg" xmlns:xlink="http://www.w3.org/1999/xlink" x="0px" y="0px"
width="378.022px" height="338.461px" viewBox="0 0 378.022 338.461" enable-background="new 0 0 378.022 338.461"
xml:space="preserve">
<path fill="#FBB040" d="M16.273,149.479c0,0-7.876,9.459-1.251,20.459l10.061-12.785L16.273,149.479z"/>
<path fill="#4E6087" d="M80.072,257.469c0,0-3.926,10.094,44.651,10.094c61.923,0,54.243-21.461,54.243-21.461
s-19.152,7.961-29.486,6.627c-10.334-1.332-19.961-119-19.961-119l-59.039-1.666L80.072,257.469z"/>
<path fill="#FBB040" d="M328.65,176.253c-0.202-0.829-0.405-1.658-0.608-2.488c-0.589-2.402-1.177-4.806-1.766-7.208
c-0.322-1.316-0.646-2.632-0.967-3.949c-0.087-0.356-1.132-0.333-1.479-0.373c-10.849-1.257-21.697-2.514-32.546-3.771
c-12.578-1.457-25.157-2.895-37.745-4.274c-9.651-1.058-19.304-2.121-28.955-3.18c-0.863-0.505-1.728-1.011-2.591-1.516
c-3.769-2.205-7.534-4.416-11.311-6.607c-2.638-1.531-5.274-3.062-7.912-4.592c-0.618-0.359-1.237-0.718-1.855-1.077
c-0.007-0.004-0.194,0.322-0.2,0.332c-0.157,0.266-0.153,0.143,0.184,0.439c0.583,0.511,1.178,1.009,1.771,1.506
c1.091,0.913,2.189,1.811,3.3,2.7c3.882,3.106,7.834,6.124,11.863,9.035c1.241,0.896,2.482,1.793,3.724,2.69
c0.813,0.588,1.325,0.976,2.321,1.183c3.645,0.754,7.325,1.353,10.988,2.013c16.083,2.897,32.373,4.784,48.647,6.234
c13.189,1.175,26.504,1.911,39.752,1.846c1.546,4.018,3.128,8.03,4.977,11.916C328.97,176.928,328.815,176.925,328.65,176.253z"/>
<path fill="#2F4366" d="M16.273,149.479c0,0-7.967-19.75,2.453-25.083s25.42-2.767,47.087-2.767S16.786,150.883,16.273,149.479z"/>
<path fill="#2F4366" d="M148.133,172.062c0,0,42.514-5.979,67.014-17.49c24.5-11.51,36-32.943,7-32.943s-55,0-55,0
S118.619,140.562,148.133,172.062z"/>
<path fill="#2F4366" d="M67.146,128.879c0,0,34.5-38.76,47-45.357s68-11.809,97.5-8.379c29.5,3.431,15,12.227,16.5,12.227
s-21.773-6.047-35.387,1.65c-13.614,7.697-52.114,43.043-52.114,43.043L67.146,128.879z"/>
<g>
<path fill="#FFFFFF" d="M55.206,140.812c-6.728,0-12.173,1.091-16.341,3.269c-4.169,2.18-8.763,6.536-13.783,13.072l-8.81-7.674
c8.05-11.271,15.155-18.73,21.313-22.379c6.157-3.645,14.54-5.471,25.15-5.471H182.52v19.183h-34.387v85.255
c0,12.41,3.553,18.613,10.657,18.613c4.071,0,8.952-2.365,14.636-7.104l5.541,8.525c-10.609,9.094-20.936,13.641-30.976,13.641
c-8.147,0-14.233-2.746-18.259-8.242c-4.027-5.492-6.039-14.729-6.039-27.707v-82.981H80.072v116.657H51.512v-6.963
c5.872-22.26,8.81-52.289,8.81-90.086v-19.608H55.206z"/>
</g>
<path fill="#414042" d="M14.974,169.951c-0.826-2.713,0.062-5.886,1.257-8.351c0.707-1.457,1.504-2.874,2.561-4.11
c0.208-0.244,3.151-3.139,3.295-2.954c0.216,0.278-1.695,2.486-1.936,2.808c-1.056,1.407-2.186,2.804-3.062,4.333
c-0.874,1.393-1.488,2.997-1.859,4.593c-0.187,0.802-0.29,1.634-0.283,2.458C14.949,169.021,15.175,169.824,14.974,169.951z"/>
<circle fill="#E6E7E8" cx="22.121" cy="132.062" r="2.21"/>
<path fill="#FBB040" d="M325.85,185.329c-0.3-0.961-0.6-1.922-0.9-2.883c-0.917-2.936-1.833-5.87-2.75-8.806
c-0.218-0.696-0.435-1.392-0.652-2.088c-0.009-0.486-1.909-0.372-2.255-0.39c-1.955-0.104-3.911-0.206-5.866-0.31
c-6.101-0.321-12.201-0.643-18.302-0.965c-9.99-0.527-19.979-1.08-29.972-1.577c-14.035-0.698-28.074-1.315-42.111-1.97
c-0.995-0.046-2.249,0.134-3.159-0.325c-2.457-1.238-4.914-2.477-7.372-3.715c-3.874-1.953-7.755-3.894-11.636-5.833
c-1.263-0.631-2.526-1.262-3.789-1.893c-0.347-0.173-0.694-0.347-1.041-0.521c-0.369-0.184-0.3-0.053-0.506,0.35
c-0.173,0.338,5.308,3.967,5.951,4.419c0.888,0.623,1.765,1.263,2.667,1.866c4.578,3.059,9.195,6.043,13.853,8.982
c1.002,0.632,1.941,0.697,3.135,0.851c2.028,0.26,4.062,0.477,6.094,0.713c3.604,0.418,7.207,0.813,10.819,1.163
c8.655,0.838,17.352,1.492,26.042,1.865c2.62,0.113,5.24,0.238,7.861,0.338c3.297,0.126,6.58,0.323,9.873,0.49
c2.585,0.131,5.194,0.349,7.782,0.349c5.463,0,10.889-0.236,16.347-0.48c2.865-0.128,5.729-0.28,8.593-0.429
c1.061-0.056,2.121-0.101,3.181-0.173c0.214-0.015,1.862-0.239,1.922-0.109c0.144,0.312,0.287,0.623,0.431,0.936
c1.077,2.337,2.186,4.673,3.368,6.959c0.198,0.385,1.736,3.688,1.965,3.613C325.835,185.622,325.969,185.71,325.85,185.329z"/>
<path fill="#4E6087" d="M227.348,121.901c0,0,122.799,9.577,133.299,13.368c10.5,3.793,7.5,6.613,0,5.203
c0,0,12.092,4.656,6.795,6.373c-5.295,1.717-9.295,0-9.295,0s9.5,6.477,5.5,7.347s-113.781-24.55-124.391-24.341
c-10.609,0.211-11.908,5.418-11.908,5.418S220.7,121.375,227.348,121.901z"/>
</svg>

