<?xml version="1.0" encoding="utf-8"?>
<!-- Generator: Adobe Illustrator 16.0.0, SVG Export Plug-In . SVG Version: 6.00 Build 0)  -->
<!DOCTYPE svg PUBLIC "-//W3C//DTD SVG 1.1//EN" "http://www.w3.org/Graphics/SVG/1.1/DTD/svg11.dtd">
<svg version="1.1" id="Layer_1" xmlns="http://www.w3.org/2000/svg" xmlns:xlink="http://www.w3.org/1999/xlink" x="0px" y="0px"
width="225.533px" height="291.429px" viewBox="0 0 225.533 291.429" enable-background="new 0 0 225.533 291.429"
xml:space="preserve">
<g>
<path fill="#FFFFFF" d="M208.123,67.351c-7.199,1.705-11.65,4.169-13.355,7.389c-1.705,3.222-2.559,11.179-2.559,23.872v26.571
c0,25.672-5.541,44.119-16.625,55.345c-11.082,11.225-27.756,16.979-50.016,17.264v59.536h-23.587v-59.536
c-22.642-0.191-39.407-5.564-50.3-16.127c-10.895-10.562-16.341-27.495-16.341-50.798V98.611c0-10.988-0.806-18.543-2.415-22.664
c-1.612-4.121-6.159-6.985-13.641-8.597v-6.962h40.779v67.777c0,20.652,3.269,35.239,9.805,43.764s17.24,13.356,32.112,14.493V0
h23.587v186.423c16.008-1.609,26.998-6.796,32.965-15.559c5.969-8.762,8.952-23.184,8.952-43.267V60.389h40.638V67.351z"/>
</g>
<path fill="#49A555" d="M19.285,67.351c0,0-9.621,0.04-10.621,12.374C8.664,79.725,19.572,80.978,19.285,67.351z"/>
<path fill="#49A555" d="M19.285,67.351c0,0-5.954,22.041,4.046,36.707S41.239,71.644,19.285,67.351z"/>
<path fill="#49A555" d="M208.123,67.351c0,0,7.541,13.707,4.208,25.374C212.331,92.725,196.582,82.978,208.123,67.351z"/>
<path fill="#49A555" d="M208.123,67.351c0,0,2.33,23.374-6.792,32.374C201.331,99.725,190.248,73.978,208.123,67.351z"/>
<path fill="#49A555" d="M202.762,99.725c0,0,6.484,6.797,0,20.131C202.762,119.855,193.58,114.26,202.762,99.725z"/>
<path fill="#414042" d="M65.331,219.391c0,0,11-6.5,22.5,6.5C87.831,225.891,76.831,232.391,65.331,219.391z"/>
<path fill="#414042" d="M161.032,220.391c0,0-11-6.5-22.5,6.5C138.532,226.891,149.532,233.391,161.032,220.391z"/>
<path fill="#4E6087" d="M217.831,64.391l-13.936-15c0,0-0.363-20.5,9.286-17s12.148,14.358,4.649,19.143
C217.831,51.534,235.162,55.434,217.831,64.391z"/>
<g>

<rect x="200.626" y="55.391" transform="matrix(0.6806 0.7326 -0.7326 0.6806 109.0223 -136.3143)" fill="#2F4366" width="20.474" height="3"/>
</g>
<path fill="#49A555" d="M32.933,103.058c0,0,6.484,6.797,0,20.131C32.933,123.189,23.751,117.594,32.933,103.058z"/>
<polygon fill="#4E6087" points="101.981,257.327 125.568,257.327 114.5,265.096 "/>
</svg>
