<?xml version="1.0" encoding="utf-8"?>
<!-- Generator: Adobe Illustrator 16.0.0, SVG Export Plug-In . SVG Version: 6.00 Build 0)  -->
<!DOCTYPE svg PUBLIC "-//W3C//DTD SVG 1.1//EN" "http://www.w3.org/Graphics/SVG/1.1/DTD/svg11.dtd">
<svg version="1.1" id="Layer_1" xmlns="http://www.w3.org/2000/svg" xmlns:xlink="http://www.w3.org/1999/xlink" x="0px" y="0px"
width="182.553px" height="213.076px" viewBox="0 0 182.553 213.076" enable-background="new 0 0 182.553 213.076"
xml:space="preserve">
<g>
<path fill="#FFFFFF" d="M83.878,141.746v71.33H59.438V87.61c0-49.825,21.172-74.739,63.514-74.739
c17.809,0,31.615,5.85,41.42,17.548c9.805,11.7,14.707,28.063,14.707,49.093c0,24.154-5.354,42.604-16.057,55.344
c-10.705,12.742-25.246,19.111-43.622,19.111C105.476,153.967,93.634,149.895,83.878,141.746z M83.878,90.878v23.303
c0,8.24,3.219,14.99,9.662,20.248c6.44,5.256,14.113,7.885,23.019,7.885c23.871,0,35.808-18.803,35.808-56.41
c0-41.11-10.707-61.667-32.113-61.667C96.002,24.238,83.878,46.453,83.878,90.878z"/>
</g>
<path fill="#931B25" d="M30.124,83.771c0,0-18.706-6.75-26.719-2.884c-8.014,3.867,0.044,8.925,4.512,8.957
c0,0-9.106,5.308-2.914,8.306C11.196,101.149,24.468,95.009,30.124,83.771z"/>
<path fill="#603913" d="M30.975,82.934c2.128-0.422,4.766,0.244,6.699,1.096c2.536,1.118,4.771,2.584,6.828,4.446
c4.34,3.928,7.538,9.35,9.444,14.846c2.065,5.958,2.462,12.29,2.684,18.548c0.223,6.272,1.079,12.553,2.082,18.741
c2.062,12.731,3.77,25.582,3.948,38.503c0.154,11.163-0.367,22.563-2.721,33.507c-0.105,0.491-0.055,0.455-0.586,0.455
c-0.481,0-0.396-0.301-0.51-0.755c-0.597-2.392-1.089-4.814-1.509-7.243c-1.021-5.908-1.857-11.867-2.481-17.831
c-0.656-6.276-1.033-12.555-1.028-18.866c0.005-6.449-0.009-12.922,0.472-19.355c0.48-6.436,1.187-12.803,0.562-19.26
c-0.605-6.272-2.787-12.155-5.191-17.927c-2.284-5.483-4.223-11.102-7.163-16.281c-2.597-4.572-6.191-9.241-11.039-11.574
C30.797,83.662,30.908,83.649,30.975,82.934z"/>
<path fill="#49A555" d="M53.77,130.613c0,0-1.102-9.5-10.676-13.75s-10.824-3.891-10.824-3.891S35.52,146.113,53.77,130.613z"/>
<path fill="#83B541" d="M53.77,130.613c0,0-14.081-6.25-25.415,0C28.354,130.613,41.185,147.696,53.77,130.613z"/>
<path fill="#F7941E" d="M174.851,32.402l-13.936-15c0,0-0.363-20.5,9.286-17s12.148,14.358,4.649,19.143
C174.851,19.545,192.182,23.445,174.851,32.402z"/>
<g>

<rect x="157.646" y="23.403" transform="matrix(0.6806 0.7326 -0.7326 0.6806 71.8601 -115.0419)" fill="#F15A29" width="20.474" height="3"/>
</g>
<path fill="#931B25" d="M29.354,83.332c0,0,2.884-19.676-2.503-26.757c-5.388-7.082-8.737,1.823-7.877,6.208
c0,0-7.019-7.865-8.721-1.199C8.55,68.25,17.213,80.031,29.354,83.332z"/>
<path fill="#931B25" d="M28.849,83.33c0,0,19.885,0.289,26.201-5.978c6.316-6.267-2.949-8.424-7.184-6.999
c0,0,6.881-7.985,0.05-8.802C41.083,60.734,30.536,70.862,28.849,83.33z"/>
<path fill="#931B25" d="M29.415,82.083c0,0-10.086,17.139-7.765,25.728c2.322,8.59,8.78,1.604,9.636-2.781
c0,0,3.537,9.93,7.625,4.397C43.002,103.893,39.417,89.716,29.415,82.083z"/>
<path fill="#D25141" d="M29.301,83.159c0,0,0.483-9.829-2.217-12.461c-2.699-2.633-2.339,1.687-2.159,3.486
c0,0-1.439-2.853-3.239-1.606S25.72,81.007,29.301,83.159z"/>
<path fill="#D25141" d="M28.659,83.618c0,0-9.712-1.585-12.631,0.8c-2.921,2.386,1.412,2.515,3.221,2.539
c0,0-2.997,1.109-1.96,3.038C18.324,91.923,26.118,86.935,28.659,83.618z"/>
<path fill="#D25141" d="M29.412,83.208c0,0-3.458,9.212-1.69,12.543c1.767,3.331,2.743-0.892,3.12-2.662
c0,0,0.501,3.156,2.596,2.518C35.531,94.97,32.166,86.35,29.412,83.208z"/>
<path fill="#D25141" d="M30.219,82.261c0,0,9.841-0.006,12.336-2.834c2.495-2.827-1.802-2.253-3.59-1.983
c0,0,2.777-1.58,1.443-3.315C39.074,72.393,32.189,78.577,30.219,82.261z"/>
</svg>

