<?xml version="1.0" encoding="utf-8"?>
<!-- Generator: Adobe Illustrator 16.0.0, SVG Export Plug-In . SVG Version: 6.00 Build 0)  -->
<!DOCTYPE svg PUBLIC "-//W3C//DTD SVG 1.1//EN" "http://www.w3.org/Graphics/SVG/1.1/DTD/svg11.dtd">
<svg version="1.1" id="Layer_1" xmlns="http://www.w3.org/2000/svg" xmlns:xlink="http://www.w3.org/1999/xlink" x="0px" y="0px"
width="179.016px" height="281.71px" viewBox="0 0 179.016 281.71" enable-background="new 0 0 179.016 281.71"
xml:space="preserve">
<path fill="#49A555" d="M111.373,198.95c0,0-5.902,22.267-22.277,33.393c-16.375,11.125-31.324,20.164-25.762,49.367
c0,0,3.146-14.111,22.945-19.469c59.103-15.992,68.762-63.553,44.115-82.36C105.749,161.073,111.373,198.95,111.373,198.95z"/>
<path fill="#49A555" d="M71.505,66.773c0,0,15.936,18.072,20.198,19.98s7.567-6.392,7.567-6.392s6.066,3.402,4.508,7.955
c-1.559,4.552-12.494,11.076-20.35,6.19c-1.502-0.934-22.39-18.548-21.372-20.951C63.073,71.152,69.287,66.235,71.505,66.773z"/>
<g>
<path fill="#D25141" d="M154.449,154.042l-1.943-4.057l-3.703,2.029c1.789-4.984,1.069-5.529-1.067-7.143
c-1.046-0.791-2.349-1.774-3.492-3.271c-3.893-5.09,0.759-11.578,4.121-14.609l4.018,4.456l-2.009-2.228l2.014,2.224
c-1.769,1.609-4.41,5.163-3.378,6.513c0.647,0.847,1.472,1.469,2.344,2.128C154.842,142.721,157.483,145.591,154.449,154.042z"/>
</g>
<path fill="#49A555" d="M78.628,177.324c0,0-76.427-27.114-59.093-88.115c17.334-61,111.333-76.333,145-36.333
s-0.667,73.333-10,78.333c0,0-5,3.667-12-2.333s-24-20.667-24-52S69.18,54.495,62.477,87.071
C59.157,103.203,42.388,142.438,78.628,177.324z"/>
<path fill="#49A555" d="M41.014,147.937c0,0-12.313,7.689-14.813,9.189s5.75,16.5,11.75,21.5s-4.945,7.25-4.223,9.25
s6.098-1.125,8.598-1.125s2.782,10.125,5.032,9.625s-1.5-8.5,0-10.25s6.468,7.875,8.468,6.875s-4.625-9.875-3.375-9.875
s5.5,5,7.75,4.25s-8.25-8.25-6.5-8s7.668,0.555,7.375-0.125c-0.699-1.624-8.125-3.344-11.875-4.609s-6.333-10.933-6.333-10.933
s-2.417-0.5,14.333,0S45.577,146.999,41.014,147.937z"/>
<path fill="#49A555" d="M65.288,138.011c0,0,11.636-12.907,13.972-15.048c2.336-2.142,10.807,8.428,14.506,13.627
c0,0,4.573-0.778,6.521-1.167s-1.362,1.849-2.53,3.212c-1.168,1.362,4.63,1.46,5.798,3.407s-3.461,0.195-6.187,0.195
c-1.796,0,4.186,4.7,4.186,4.7c-1.363,1.535-4.866-2.56-7.69-2.851c-1.994-0.207,4.77,6.035,2.045,7.008
c-1.024,0.367-4.042-6.76-5.938-6.619c-1.322,0.098-1.197,3.309-2.921,3.504s-0.195-3.797,0.974-5.549
c1.168-1.752-5.258-5.061-5.258-5.061l-6.23,16.252C76.534,153.622,62.608,143.909,65.288,138.011z"/>
<g>
<path fill="#FFFFFF" d="M136.743,54.887v26.429h-17.478c-5.022-13.83-13.925-20.746-26.713-20.746
c-9.474,0-17.384,4.454-23.729,13.356c-6.348,8.905-9.52,21.221-9.52,36.944c0,13.925,2.604,24.772,7.814,32.539
c5.209,7.769,16.199,14.447,32.965,20.035c11.084,3.885,18.992,7.935,23.729,12.148c4.735,4.217,7.104,10.302,7.104,18.259
c0,9.378-3.48,18.329-10.443,26.854c-6.963,8.527-17.264,17.621-30.904,27.283l-8.384-10.09
c17.429-12.883,26.145-25.292,26.145-37.228c0-5.21-1.421-9.143-4.263-11.794c-2.842-2.65-7.531-5.162-14.066-7.53
c-20.842-7.389-35.264-16.221-43.268-26.5c-8.006-10.277-12.006-23.8-12.006-40.567c0-19.229,5.918-34.977,17.761-47.245
c11.841-12.267,27.565-18.401,47.175-18.401C111.828,48.635,124.522,50.72,136.743,54.887z"/>
</g>
<path fill="#49A555" d="M74.292,47.618c0,0-3.485-27.389-7.193-29.956c-3.708-2.566-6.457,2.337-7.36,9.653
c-0.906,7.316-0.866,21.232-0.866,21.232S70.856,49.768,74.292,47.618z"/>
<path fill="#49A555" d="M70.578,22.615c0,0,6.045-1.669,7.441-2.744S74.179,18.772,73.685,18c-0.492-0.771,4.364-9.491,4.954-11.475
c0.589-1.983-9.351,9.38-9.444,5.708c-0.094-3.671,1.952-12.857,0.019-12.2c-1.935,0.656-2.391,11.834-5.508,12.913
c-3.115,1.079-5.196-11.38-7.154-10.733c-1.957,0.647,3.991,12.352,1.741,13.246s-8.97,0.044-6.68,1.219
c2.29,1.174,7.596,2.462,7.967,5.828C59.951,25.871,70.578,22.615,70.578,22.615z"/>
<path fill="#49A555" d="M97.101,84.251c0,0,0.076-10.657,1.237-9.371c1.161,1.287,0.628,5.065,1.89,4.326
c1.263-0.74,4.57-8.064,5.726-7.107s-4.584,8.864-2.774,9.227s6.564-4.789,7.959-4.121c1.395,0.668-6.193,5.908-5.901,7.123
c0.292,1.216,7.821-1.799,8.385-0.52c0.564,1.279-7.386,2.646-7.397,4.422c-0.011,1.777,6.517,3.126,1.406,3.113
s-10.962,1.957-10.962,1.957S95.929,84.585,97.101,84.251z"/>
</svg>

