<?xml version="1.0" encoding="utf-8"?>
<!-- Generator: Adobe Illustrator 16.0.0, SVG Export Plug-In . SVG Version: 6.00 Build 0)  -->
<!DOCTYPE svg PUBLIC "-//W3C//DTD SVG 1.1//EN" "http://www.w3.org/Graphics/SVG/1.1/DTD/svg11.dtd">
<svg version="1.1" id="Layer_1" xmlns="http://www.w3.org/2000/svg" xmlns:xlink="http://www.w3.org/1999/xlink" x="0px" y="0px"
width="187.698px" height="138.396px" viewBox="0 0 187.698 138.396" enable-background="new 0 0 187.698 138.396"
xml:space="preserve">
<g>
<path fill="#FFFFFF" d="M76.303,19.182v81.419c0,15.157,5.826,22.734,17.477,22.734c5.305,0,11.131-2.509,17.479-7.53l5.825,8.383
c-11.937,9.473-22.926,14.209-32.966,14.209c-10.989,0-19.111-2.842-24.368-8.525S51.863,115,51.863,102.306V19.182H39.359
c-7.484,0-13.264,1.209-17.336,3.624c-4.073,2.415-8.383,6.607-12.93,12.575L0,27.85C8.715,16.01,16.149,8.408,22.309,5.045
C28.465,1.684,36.66,0,46.891,0h83.833v19.182H76.303z"/>
</g>
<path fill="#B9E0E0" d="M113.633,119.223c2.703-8.276,5.442-16.541,7.977-24.869c1.85-6.078,3.644-12.173,5.151-18.347
c0.827-3.388,1.912-6.757,2.33-10.233c1.863-15.478,0.865-31.055,1.633-46.592c2.184,4.373,3.672,9.19,4.946,13.894
c1.53,5.643,2.626,11.412,3.218,17.229c0.772,7.587,0.925,15.665-1.148,23.088c-0.787,2.817-1.604,5.624-2.428,8.431
c-0.702,2.512-1.788,4.955-2.746,7.379c-0.933,2.358-1.991,4.633-3.104,6.91c-2.219,4.543-4.707,8.967-7.604,13.115
C119.402,112.74,116.796,116.303,113.633,119.223z"/>
<g>

<rect x="135.271" y="19.483" transform="matrix(0.2604 0.9655 -0.9655 0.2604 160.9973 -86.2107)" fill="#2F4366" width="3" height="85"/>
</g>
<polygon fill="#2F4366" points="168.455,40.743 174.546,63.311 187.698,48.238 "/>
<polygon fill="#4E6087" points="96.367,62.27 89.206,64.202 95.001,70.32 102.161,68.387 "/>
<polygon fill="#D25241" points="105.137,59.903 97.976,61.836 103.77,67.953 110.931,66.021 "/>
<polygon fill="#D25241" points="105.333,73.746 112.494,71.813 110.564,80.017 103.404,81.949 "/>
<polygon fill="#4E6087" points="96.564,76.113 103.725,74.18 101.796,82.383 94.635,84.316 "/>
<polygon fill="#4E6087" points="171.647,52.57 187.698,48.238 168.455,40.743 "/>
</svg>

