<?xml version="1.0" encoding="utf-8"?>
<!-- Generator: Adobe Illustrator 16.0.0, SVG Export Plug-In . SVG Version: 6.00 Build 0)  -->
<!DOCTYPE svg PUBLIC "-//W3C//DTD SVG 1.1//EN" "http://www.w3.org/Graphics/SVG/1.1/DTD/svg11.dtd">
<svg version="1.1" id="Layer_1" xmlns="http://www.w3.org/2000/svg" xmlns:xlink="http://www.w3.org/1999/xlink" x="0px" y="0px"
width="133.623px" height="138.814px" viewBox="0 0 133.623 138.814" enable-background="new 0 0 133.623 138.814"
xml:space="preserve">
<path fill="#808285" d="M39.661,73.252h49c0,0,1.5,15.836-2.75,17.836s-5.75-2.086-5.75-2.086s1,11.562-3.5,13.312
s-3.75-2.156-3.75-2.156s-1.625,9.359-6,8.734s-6.75-10.258-6.75-10.258s-0.875,4.496-2.875,4.496s-3.75-4.627-3.75-4.627
s-4.375,3.124-6-1.251s-1.625-4.376-1.625-4.376s-0.25,3.75-3.5,3.125S39.661,73.252,39.661,73.252z"/>
<g>
<path fill="#FFFFFF" d="M63.185,138.814c-14.323,0-24.805-5.582-31.445-16.748c-6.641-11.165-9.961-28.206-9.961-51.123
c0-22.981,3.646-40.494,10.938-52.539C40.007,6.36,50.685,0.338,64.748,0.338c14.258,0,24.837,5.502,31.738,16.504
c6.899,11.003,10.352,27.995,10.352,50.977c0,23.698-3.647,41.455-10.938,53.271C88.608,132.906,77.702,138.814,63.185,138.814z
M39.748,64.107h49.023c-0.913-37.369-9.05-56.055-24.414-56.055C48.471,8.053,40.268,26.739,39.748,64.107z M88.869,74.068H39.748
c0.716,37.956,9.017,56.934,24.902,56.934C80.534,131.002,88.608,112.024,88.869,74.068z"/>
</g>
<g>
<g>
<path fill="#096A37" d="M106.975,15.2c-0.501-2.808-9.262-8.458-11.726-5.8l0,0c5.388,1.636,8.253,7.839,14.024,7.488"/>
</g>
<g>
<path fill="#096A37" d="M109.958,17.586c-2.363-3.396-0.975-8.379,1.613-11.237c0.285,4.064,4.316,11.538,1.807,14.724"/>
</g>
<g>
<path fill="#096A37" d="M114.191,25.183c0.274-3.166-8.715-6.178-11.94-4.543c1.992,4,7.496,10.433,12.474,8.204"/>
</g>
<g>
<path fill="#096A37" d="M115.826,28.407c1.097-4.051,3.246-8.012,7.046-10.128c0.422,2.482-1.092,16.28-4.851,14.254"/>
</g>
<g>
<path fill="#096A37" d="M118.04,34.767c-0.657-3.459-10.996-5.631-12.775-2.276c3.218,3.362,7.789,9.501,13.094,7.195"/>
</g>
<g>
<path fill="#096A37" d="M119.086,39.855c0.613-4.625,4.732-10.436,9.215-11.854c-0.828,5.882-3.749,13.816-10.36,12.818"/>
</g>
<g>
<path fill="#3D121C" d="M115.122,64.461c1.591-4.17,3.583-8.436,4.345-12.865c0.856-4.983,0.318-9.976-0.397-14.947
c-1.576-10.955-8.593-20.311-16.183-27.95c-0.247-0.249-1.553,0.292-1.369,0.478c7.792,7.843,14.036,16.833,16.104,27.86
c1.911,10.203-0.316,18.24-3.925,27.694C113.618,64.939,114.988,64.812,115.122,64.461L115.122,64.461z"/>
</g>
<g>
<path fill="#096A37" d="M103.559,11.539C100.7,8.952,99.124,3.817,99.243,0c2.285,3.069,5.908,6.68,6.643,10.465
c-0.047,0.527-0.894,4.176-0.431,2.515"/>
</g>
</g>
<g>
<g>
<path fill="#096A37" d="M21.327,15.2c0.501-2.808,9.262-8.458,11.726-5.8l0,0c-5.387,1.636-8.253,7.839-14.025,7.488"/>
</g>
<g>
<path fill="#096A37" d="M18.344,17.586c2.364-3.396,0.975-8.379-1.612-11.237c-0.285,4.064-4.316,11.538-1.808,14.724"/>
</g>
<g>
<path fill="#096A37" d="M14.111,25.183c-0.275-3.166,8.715-6.178,11.94-4.543c-1.993,4-7.497,10.433-12.474,8.204"/>
</g>
<g>
<path fill="#096A37" d="M12.476,28.407c-1.096-4.051-3.246-8.012-7.045-10.128c-0.423,2.482,1.092,16.28,4.85,14.254"/>
</g>
<g>
<path fill="#096A37" d="M10.263,34.767c0.657-3.459,10.996-5.631,12.775-2.276c-3.218,3.362-7.79,9.501-13.093,7.195"/>
</g>
<g>
<path fill="#096A37" d="M9.215,39.855C8.602,35.23,4.483,29.42,0,28.001c0.829,5.882,3.75,13.816,10.361,12.818"/>
</g>
<g>
<path fill="#3D121C" d="M14.618,64.402c-1.606-4.208-3.383-8.388-4.333-12.806c-0.941-4.374-0.362-8.979,0.169-13.362
c1.405-11.585,8.278-21.292,16.299-29.365c0.275-0.277-1.073-0.094-1.304,0.139c-7.257,7.303-13.981,16.106-15.924,26.469
C8.578,40.532,7.998,45.79,8.652,50.917c0.61,4.786,2.813,9.412,4.517,13.875C13.287,65.102,14.708,64.642,14.618,64.402
L14.618,64.402z"/>
</g>
<g>
<path fill="#096A37" d="M24.743,11.539C27.602,8.952,29.178,3.817,29.06,0c-2.286,3.069-5.908,6.68-6.643,10.465
c0.046,0.527,0.894,4.176,0.431,2.515"/>
</g>
</g>
<path fill="#F4DEC6" d="M131.855,87.787c-1.91-1.114-3.816-2.234-5.75-3.297l-2.653-1.483c0.465-0.883,0.919-1.771,1.322-2.677
c0.79-1.768,1.344-3.621,1.754-5.528c0.418-1.903,0.737-3.844,0.888-5.846c0.041-0.5,0.07-1.003,0.088-1.511
c0.015-0.509,0.034-1.016,0.015-1.538s-0.006-1.031-0.059-1.565c-0.034-0.527-0.084-1.06-0.174-1.607l-0.75-0.276
c-0.424,0.359-0.807,0.732-1.174,1.112c-0.386,0.373-0.706,0.769-1.059,1.154c-0.354,0.385-0.666,0.784-0.985,1.181
c-0.315,0.398-0.62,0.801-0.912,1.208c-1.184,1.623-2.197,3.307-3.112,5.029c-0.924,1.718-1.703,3.488-2.246,5.347
c-0.546,1.856-0.898,3.785-1.361,5.672l-0.844,3.444l2.637,0.865c1.053,0.345,2.09,0.722,3.127,1.099l3.11,1.135
c1.535,0.572,3.087,1.111,4.64,1.646c-0.517,2.948-1.011,5.902-1.51,8.855c-0.598,3.643-1.174,7.291-1.714,10.949l0.775,0.195
c1.257-3.478,2.478-6.964,3.677-10.455c1.181-3.497,2.382-6.988,3.523-10.494l0.515-1.582L131.855,87.787z"/>
<path fill="#58595B" d="M57.494,36.919c0,0,0.188,0.173,0.404,0.554c0.105,0.191,0.231,0.435,0.305,0.75
c0.083,0.312,0.143,0.709,0.025,1.201c-0.102,0.485-0.507,1.089-1.112,1.401c-0.288,0.148-0.602,0.25-0.89,0.297
c-0.101,0.014-0.092,0.031-0.287,0.042l-0.151,0.016l-0.306,0.029c-0.551,0.004-1.039-0.033-1.48-0.1
c-0.456-0.058-0.894-0.156-1.32-0.245c-1.702-0.399-3.194-0.954-4.367-1.267c-0.299-0.093-0.567-0.146-0.826-0.216
c-0.263-0.047-0.491-0.087-0.68-0.121c-0.384-0.031-0.65-0.07-0.65-0.07s0.142-0.195,0.472-0.5c0.17-0.128,0.387-0.295,0.66-0.44
c0.269-0.128,0.593-0.299,0.951-0.391c0.72-0.224,1.589-0.323,2.472-0.289c0.886,0.028,1.792,0.178,2.642,0.371
c0.425,0.106,0.837,0.208,1.224,0.32c0.189,0.054,0.376,0.106,0.562,0.159c0.184,0.053,0.294,0.08,0.45,0.138l0.303,0.057
l0.149,0.029c-0.096,0.003,0.012,0.01,0.009,0.016c0.11,0.039,0.167,0.041,0.238,0.072c0.1,0.037,0.206,0.082,0.365-0.03
c0.147-0.106,0.309-0.313,0.406-0.532c0.096-0.217,0.19-0.437,0.247-0.625C57.43,37.167,57.494,36.919,57.494,36.919z"/>
<path fill="#58595B" d="M71.305,36.919c0,0,0.063,0.248,0.185,0.626c0.057,0.188,0.151,0.408,0.247,0.625
c0.098,0.219,0.259,0.426,0.406,0.532c0.158,0.112,0.265,0.067,0.365,0.03c0.07-0.031,0.128-0.033,0.237-0.072
c-0.003-0.006,0.104-0.013,0.01-0.016l0.148-0.029l0.303-0.057c0.155-0.058,0.266-0.085,0.45-0.138
c0.185-0.052,0.372-0.105,0.562-0.159c0.387-0.112,0.799-0.213,1.224-0.32c0.851-0.193,1.757-0.343,2.643-0.371
c0.883-0.034,1.751,0.065,2.472,0.289c0.358,0.092,0.682,0.262,0.951,0.391c0.272,0.145,0.49,0.312,0.66,0.44
c0.33,0.304,0.472,0.5,0.472,0.5s-0.266,0.039-0.649,0.07c-0.188,0.033-0.418,0.074-0.681,0.121
c-0.259,0.07-0.527,0.123-0.826,0.216c-1.173,0.313-2.664,0.868-4.366,1.267c-0.427,0.089-0.864,0.188-1.321,0.246
c-0.441,0.066-0.928,0.104-1.479,0.099L73.01,41.18l-0.151-0.016c-0.194-0.011-0.186-0.027-0.287-0.042
c-0.287-0.047-0.602-0.149-0.889-0.297c-0.605-0.312-1.011-0.917-1.113-1.402c-0.117-0.492-0.058-0.89,0.025-1.201
c0.074-0.315,0.2-0.559,0.306-0.75C71.118,37.092,71.305,36.919,71.305,36.919z"/>
<path fill="#6D6E71" d="M47.971,62.428c0.449-0.738,1.031-1.317,1.653-1.851c0.629-0.52,1.32-0.963,2.059-1.329
c0.744-0.358,1.528-0.653,2.365-0.824c0.412-0.103,0.841-0.159,1.275-0.187c0.428-0.038,0.881,0.017,1.314,0.065
c0.441,0.08,0.877,0.193,1.298,0.35l0.62,0.276l0.151,0.07l0.075,0.035l0.019,0.009l0.004,0.002
c-0.114-0.026-0.029-0.006-0.054-0.011l0.008,0.004l0.032,0.017l0.26,0.134c0.345,0.185,0.693,0.357,1.043,0.516
c0.349,0.175,0.647,0.222,0.991,0.315c0.339,0.106,0.667,0.064,1.002,0.06c0.174,0.004,0.32-0.048,0.464-0.097
c0.138-0.063,0.305-0.077,0.416-0.172c0.112-0.094,0.231-0.167,0.334-0.261c0.089-0.119,0.174-0.236,0.252-0.352l0.218-0.438
l0.234-0.537l0.306-0.703l1.335,0.701c0.205,0.107,0.533,0.293,0.821,0.4l0.451,0.16c0.16,0.034,0.312,0.072,0.457,0.116
c0.283,0.103,0.608,0.091,0.881,0.173c0.29,0.042,0.588,0.044,0.868,0.083l0.876-0.06c0.224-0.021,0.761-0.091,1.052-0.14
c0.675-0.108,1.48-0.201,2.257-0.253c1.58-0.07,3.26-0.024,4.98,0.436c0.424,0.087,0.863,0.266,1.279,0.427
c0.43,0.192,0.842,0.387,1.232,0.682c0.194,0.126,0.387,0.267,0.558,0.45c0.171,0.176,0.345,0.322,0.479,0.534
c0.136,0.203,0.273,0.388,0.363,0.606c0.089,0.221,0.149,0.447,0.21,0.652l-0.336,0.219c-0.373-0.191-0.691-0.338-1.038-0.411
c-0.147-0.061-0.34-0.064-0.502-0.087c-0.161-0.023-0.32-0.046-0.497-0.041c-0.324-0.017-0.675,0.017-0.999,0.02
c-0.352,0.045-0.676,0.067-1.029,0.116c-0.342,0.034-0.695,0.106-1.047,0.159l-1.067,0.173c-0.724,0.126-1.455,0.237-2.215,0.336
c-0.771,0.079-1.513,0.144-2.389,0.141c-0.484,0.003-0.725-0.011-1.276-0.053c-0.489-0.064-0.974-0.119-1.449-0.212
c-0.474-0.145-0.948-0.268-1.397-0.458c-0.436-0.233-0.883-0.425-1.256-0.748c-0.398-0.274-0.736-0.626-1.05-0.983
c-0.321-0.373-0.568-0.717-0.857-1.208l1.64-0.002l-0.915,0.816l-0.577,0.412l-0.64,0.305c-0.209,0.105-0.434,0.121-0.648,0.181
c-0.216,0.06-0.431,0.113-0.637,0.109c-0.415,0.026-0.837,0.103-1.245,0.083c-0.401,0-0.861,0.041-1.246,0.053
c-0.384,0.002-0.771,0.018-1.16,0.046l-0.292-0.093l-0.037-0.108h-0.009c-0.027,0,0.055,0-0.063,0h-0.004l-0.016,0.106l-0.063,0.059
l-0.125,0.042l-0.486,0.071c-0.32,0.041-0.638,0.12-0.944,0.15c-0.317,0.077-0.619,0.077-0.937,0.139l-0.958,0.1
c-0.648,0.063-1.315,0.176-2.004,0.266c-1.381,0.207-2.818,0.453-4.458,0.58L47.971,62.428z"/>
</svg>
