<?xml version="1.0" encoding="utf-8"?>
<!-- Generator: Adobe Illustrator 16.0.0, SVG Export Plug-In . SVG Version: 6.00 Build 0)  -->
<!DOCTYPE svg PUBLIC "-//W3C//DTD SVG 1.1//EN" "http://www.w3.org/Graphics/SVG/1.1/DTD/svg11.dtd">
<svg version="1.1" id="Layer_1" xmlns="http://www.w3.org/2000/svg" xmlns:xlink="http://www.w3.org/1999/xlink" x="0px" y="0px"
width="164.039px" height="115.139px" viewBox="0 0 164.039 115.139" enable-background="new 0 0 164.039 115.139"
xml:space="preserve">
<g>
<path fill="#FFFFFF" d="M36.109,32.131L32.3,26.565c6.9-5.599,13.184-8.398,18.848-8.398s9.732,1.97,12.207,5.908
c2.473,3.939,3.711,10.368,3.711,19.287v29.785c0,21.094,7.422,31.641,22.266,31.641c7.681,0,13.735-3.076,18.164-9.229
c4.426-6.152,6.641-14.827,6.641-26.025c0-20.833-4.07-35.611-12.207-44.336v-5.176h18.75c5.469,11.719,8.203,25.912,8.203,42.578
c0,15.17-4.004,27.719-12.012,37.646c-8.008,9.929-18.589,14.893-31.738,14.893c-12.305,0-21.226-3.418-26.758-10.254
c-5.534-6.836-8.301-17.22-8.301-31.152v-27.93c0-7.747-0.391-12.549-1.172-14.404s-2.182-2.783-4.199-2.783
C42.813,28.616,39.95,29.788,36.109,32.131z"/>
</g>
<g>
<path fill="#68C8C8" d="M9.073,26.579c-0.838,0-1.691-0.133-2.531-0.412c-4.191-1.397-6.638-5.992-5.06-10.12
c8.589-22.47,48.668-16.12,47.996-11.753c-0.672,4.366-9.271-3.946-24.235,5.783c-6.921,4.5-8.572,11.001-8.582,11.03
C15.544,24.458,12.423,26.579,9.073,26.579z"/>
</g>
<g>
<path fill="#68C8C8" d="M55.948,18.76c3.22,0.844,5.705,2.6,7.411,5.314c2.474,3.939,3.714,10.368,3.714,19.287v29.785
c0,21.094,7.419,31.641,22.263,31.641c7.681,0,13.733-3.076,18.162-9.229c4.427-6.152,6.712-14.827,6.712-26.025
c0-20.833-4.137-35.611-12.137-44.336v-0.952c-9-1.223-19.394,5.278-27.679,2.581c-4.852-1.617-13.581-9.42-19.016-8.227
c0.092,0.021,0.16,0.05,0.251,0.071C55.741,18.677,55.835,18.708,55.948,18.76z"/>
</g>
</svg>

