<?xml version="1.0" encoding="utf-8"?>
<!-- Generator: Adobe Illustrator 16.0.0, SVG Export Plug-In . SVG Version: 6.00 Build 0)  -->
<!DOCTYPE svg PUBLIC "-//W3C//DTD SVG 1.1//EN" "http://www.w3.org/Graphics/SVG/1.1/DTD/svg11.dtd">
<svg version="1.1" id="Layer_1" xmlns="http://www.w3.org/2000/svg" xmlns:xlink="http://www.w3.org/1999/xlink" x="0px" y="0px"
width="213.41px" height="273.193px" viewBox="0 0 213.41 273.193" enable-background="new 0 0 213.41 273.193"
xml:space="preserve">
<path d="M101.514,23.877c0,0,0.948,65.403-10.254,68.115C67.663,97.705,52.676,57.882,101.514,23.877z"/>
<path fill="#1E1E1E" d="M101.514,23.877c0,0-14.532,27.763-23.084,39.765C62.352,86.205,91.26,91.992,91.26,91.992
s-37.241,9.879-50.241-3.787S24.676,22.215,101.514,23.877z"/>
<path fill="#1E1E1E" d="M91.26,106.055c0,0-1.908,69.15-1.908,99.276c0,0-57.333-2.459-68.333-30.459S24.167,96.237,91.26,106.055z"
/>
<g>
<path fill="#F1F2F2" d="M167.229,189.563c-0.432,0.03-0.878-0.051-1.294-0.261c-1.233-0.618-1.732-2.121-1.112-3.354l22.895-45.614
c0.618-1.234,2.121-1.734,3.355-1.113c1.233,0.619,1.732,2.122,1.112,3.355L169.29,188.19
C168.88,189.009,168.08,189.504,167.229,189.563z"/>
</g>
<ellipse transform="matrix(-0.9956 -0.0935 0.0935 -0.9956 242.3461 395.5091)" fill="#1E1E1E" cx="130.437" cy="192.078" rx="5.923" ry="31.501"/>
<path fill="#1E1E1E" d="M183.953,158.729c1.809-0.592,5.172-4.06,2.4-3.824s-12.648-1.06-17.542-0.567s-10.019,8.13-11.999,9.041
c-1.98,0.912-27.99,0.72-27.99,0.72l-5.578,26.647c0,0,29.641-6.52,37.339-13.061c1.665-1.416,16.204-3.578,18.176-4.165
c1.97-0.587,8.777-9.96,7.692-11.62C185.367,160.24,182.146,159.322,183.953,158.729z"/>
<g>
<path fill="#FFFFFF" d="M50.977,262.793c17.871-12.696,26.807-25.44,26.807-38.232c0-5.178-1.271-8.936-3.809-11.279
c-2.541-2.344-7.716-4.296-15.527-5.859c-21.291-4.003-36.354-10.277-45.19-18.823C4.417,180.055,0,168.604,0,154.248
c0-26.756,15.429-44.385,46.289-52.881v-1.758C22.655,93.361,10.84,81.251,10.84,63.281c0-18.457,13.477-30.908,40.43-37.354
v-2.637H37.793c-13.673,0-23.195-1.659-28.564-4.98C3.856,14.992,1.025,8.888,0.732,0h25.781
c0.78,8.203,7.958,12.305,21.533,12.305h53.467v11.572l-6.738,0.439c-18.164,1.172-32.325,5.054-42.48,11.646
c-10.158,6.592-15.234,15.454-15.234,26.587c0,10.06,3.026,17.482,9.082,22.266c6.054,4.786,16.846,7.178,32.373,7.178H91.26
v14.062h-9.229c-17.482,0-31.032,3.955-40.649,11.865c-9.62,7.91-14.429,18.849-14.429,32.812c0,9.865,2.417,17.725,7.251,23.584
s14.671,10.4,29.517,13.623c14.745,3.127,24.829,6.643,30.249,10.547c5.42,3.907,8.13,10.4,8.13,19.482
c0,10.35-3.761,19.896-11.279,28.638c-7.521,8.739-17.921,17.601-31.201,26.587L50.977,262.793z"/>
</g>
<path fill="#414042" d="M47.852,136.597c0,0,1.5-20.892,16-14.892c6.085,2.518,12.435,9.351,17.755,16.434
c7.357,9.794,12.745,20.066,12.745,20.066l39,2.5c0,0-13.5,38-5.5,63c0,0-79.5-56-80-84"/>
<path d="M77.15,132.905c-21.718-21.662-38.484,0.992-22.415,22.263c12.688,17.311,31.564,30.548,44.497,46.796
c-19.504-11.958-39.623-29.878-49.074-51.163C38.731,125.065,63.861,104.949,77.15,132.905z"/>
<path fill="#414042" d="M101.514,23.877c-4.725,15.137-41.887,62.866-9.249,67.687c-14.91,3.244-25.24-11.681-19.365-24.744
C79.745,51.723,90.971,36.367,101.514,23.877z"/>
<circle fill="#BE1E2D" cx="195.785" cy="126.968" r="17.625"/>
<path fill="#F1F2F2" d="M188.693,136.189c10.559,3.092,23.375-10.278,11.068-16.437c-7.975-4.943-14.244,7.095-3.128,9.144
c-15.994,4.5-8.538-21.52,5.037-10.398C213.022,127.798,199.551,145.512,188.693,136.189z"/>
</svg>

