<?xml version="1.0" encoding="utf-8"?>
<!-- Generator: Adobe Illustrator 16.0.0, SVG Export Plug-In . SVG Version: 6.00 Build 0)  -->
<!DOCTYPE svg PUBLIC "-//W3C//DTD SVG 1.1//EN" "http://www.w3.org/Graphics/SVG/1.1/DTD/svg11.dtd">
<svg version="1.1" id="Layer_1" xmlns="http://www.w3.org/2000/svg" xmlns:xlink="http://www.w3.org/1999/xlink" x="0px" y="0px"
width="214.018px" height="273.193px" viewBox="0 0 214.018 273.193" enable-background="new 0 0 214.018 273.193"
xml:space="preserve">
<path fill="#231F20" d="M102.121,23.517c0,0,0.948,65.403-10.254,68.115C68.271,97.345,53.283,57.522,102.121,23.517z"/>
<path fill="#231F20" d="M92.23,137.235c13.839,2.152,13.186,2.466,19.112,1.619c4.535-0.648,6.154-5.831,11.984-6.155
c5.83-0.323,3.564,0.325,1.296,3.24s-2.916,3.149,0.647,3.032s23.646-0.766,22.998,2.475c-0.648,3.239-2.592,2.914-2.592,2.914
s-22.674,6.803-28.18,6.803s-30.876,4.682-30.876,4.682S83.16,138.53,92.23,137.235z"/>
<path fill="#1D1D1D" d="M102.121,23.517c0,0-14.532,27.763-23.084,39.765c-16.078,22.563,12.83,28.351,12.83,28.351
s-37.241,9.879-50.241-3.787S25.283,21.856,102.121,23.517z"/>
<path fill="#1D1D1D" d="M91.867,105.695c0,0-1.908,69.15-1.908,99.276c0,0-57.333-2.459-68.333-30.459S24.774,95.878,91.867,105.695
z"/>
<g>
<path fill="#F1F1F2" d="M167.836,189.204c-0.432,0.031-0.878-0.051-1.294-0.26c-1.233-0.619-1.732-2.122-1.112-3.355l22.895-45.614
c0.618-1.234,2.121-1.733,3.355-1.113c1.233,0.619,1.732,2.122,1.112,3.355l-22.895,45.614
C169.487,188.649,168.688,189.144,167.836,189.204z"/>
</g>
<ellipse transform="matrix(-0.9956 -0.0935 0.0935 -0.9956 243.5919 394.8483)" fill="#1D1D1D" cx="131.044" cy="191.719" rx="5.923" ry="31.5"/>
<path fill="#404041" d="M113.602,147.038c0.271-0.246,0.488-0.965,0.725-1.286c0.299-0.407,0.632-0.788,0.991-1.144
c0.996-0.982,2.229-1.818,3.564-2.261c1.46-0.482,2.872-0.298,4.34,0.017c1.585,0.341,3.198,0.502,4.81,0.646
c1.424,0.127,2.824,0.234,4.248,0.064c1.575-0.188,3.129-0.529,4.701-0.735c1.36-0.177,2.729-0.313,4.098-0.395
c0.533-0.031,1.066-0.055,1.6-0.065c0.219-0.004,1.23-0.149,1.41,0.02c0.276,0.256-1.703,0.94-1.94,1.029
c-1.312,0.491-2.653,0.9-4.011,1.248c-2.725,0.697-5.926,1.277-8.68,0.444c-2.859-0.864-5.559-2.06-8.58-1.087
c-2.51,0.809-4.863,2.041-7.03,3.538C113.754,147.135,113.699,147.103,113.602,147.038z"/>
<path fill="#231F20" d="M184.561,158.37c1.809-0.592,5.172-4.059,2.4-3.824c-2.771,0.235-12.648-1.06-17.542-0.568
c-4.894,0.492-10.019,8.131-11.999,9.042c-1.98,0.912-27.99,0.72-27.99,0.72l-5.578,26.646c0,0,29.641-6.519,37.339-13.06
c1.665-1.415,16.204-3.579,18.176-4.165c1.97-0.588,8.777-9.959,7.692-11.62C185.975,159.881,182.753,158.962,184.561,158.37z"/>
<g>
<path fill="#FFFFFF" d="M51.584,262.433c17.871-12.696,26.807-25.44,26.807-38.232c0-5.177-1.271-8.936-3.809-11.279
c-2.541-2.344-7.716-4.296-15.527-5.859c-21.291-4.003-36.354-10.276-45.19-18.823c-8.839-8.544-13.257-19.995-13.257-34.351
c0-26.756,15.429-44.385,46.289-52.881V99.25c-23.634-6.249-35.449-18.358-35.449-36.328c0-18.457,13.477-30.908,40.43-37.354
v-2.637H38.4c-13.673,0-23.195-1.659-28.564-4.98C4.464,14.632,1.633,8.528,1.34-0.36h25.781
c0.78,8.203,7.958,12.305,21.533,12.305h53.467v11.572l-6.738,0.439c-18.164,1.172-32.325,5.054-42.48,11.646
c-10.158,6.592-15.234,15.454-15.234,26.587c0,10.06,3.026,17.482,9.082,22.266c6.054,4.786,16.846,7.178,32.373,7.178h12.744
v14.062h-9.229c-17.482,0-31.032,3.955-40.649,11.865c-9.62,7.91-14.429,18.849-14.429,32.812c0,9.864,2.417,17.725,7.251,23.584
s14.671,10.4,29.517,13.623c14.745,3.126,24.829,6.642,30.249,10.547c5.42,3.907,8.13,10.4,8.13,19.482
c0,10.351-3.761,19.896-11.279,28.638c-7.521,8.738-17.921,17.602-31.201,26.587L51.584,262.433z"/>
</g>
<path fill="#404041" d="M48.459,136.237c0,0,1.5-20.892,16-14.892c6.085,2.518,12.435,9.351,17.755,16.435
c7.357,9.794,12.745,20.065,12.745,20.065l39,2.5c0,0-13.5,38-5.5,63c0,0-79.5-56-80-84"/>
<path fill="#231F20" d="M77.757,132.545c-21.718-21.662-38.484,0.992-22.415,22.263c12.688,17.311,31.564,30.548,44.497,46.796
c-19.504-11.958-39.623-29.879-49.074-51.163C39.338,124.706,64.469,104.589,77.757,132.545z"/>
<path fill="#404041" d="M102.121,23.517c-4.725,15.137-41.887,62.866-9.249,67.687c-14.91,3.244-25.24-11.681-19.365-24.744
C80.352,51.363,91.578,36.008,102.121,23.517z"/>
<circle fill="#BE1E2D" cx="196.392" cy="126.608" r="17.625"/>
<path fill="#F1F1F2" d="M189.301,135.829c10.559,3.093,23.375-10.278,11.068-16.437c-7.975-4.943-14.244,7.095-3.128,9.144
c-15.994,4.5-8.538-21.52,5.037-10.398C213.63,127.438,200.158,145.152,189.301,135.829z"/>
</svg>

