<?xml version="1.0" encoding="utf-8"?>
<!-- Generator: Adobe Illustrator 16.0.0, SVG Export Plug-In . SVG Version: 6.00 Build 0)  -->
<!DOCTYPE svg PUBLIC "-//W3C//DTD SVG 1.1//EN" "http://www.w3.org/Graphics/SVG/1.1/DTD/svg11.dtd">
<svg version="1.1" id="Layer_1" xmlns="http://www.w3.org/2000/svg" xmlns:xlink="http://www.w3.org/1999/xlink" x="0px" y="0px"
width="181.78px" height="196.828px" viewBox="0 0 181.78 196.828" enable-background="new 0 0 181.78 196.828"
xml:space="preserve">
<path fill="#58595B" d="M115.094,83.315c0,0-38.86-31.838-81.081-41.377c0,0,25.731,36.291,12.565,70.309
c0,0,37.071,33.348,72.457,7.518l14.459-52.803C124.369,74.849,115.094,83.315,115.094,83.315z"/>
<path fill="#F3BC77" d="M147.112,189.894l-5.517-24.583c0,0-11.83-1.501-12.249-5.365c-0.978-9.01,7.432-11.234,7.432-11.234
s35.16-2.831,34.216,15.725S147.112,189.894,147.112,189.894z"/>
<path fill="#414042" d="M104.828,93.627c-3.57-10.358-12.662-15.439-17-16.356c-20.5-4.334-32.834,0-32.834,0
c0.667,0,12.352,0.75,13.667,10.333c0.69,5.033,1.472,8.759,2.576,11.52c2.123,5.938,7.78,10.193,14.446,10.193
c8.205,0,14.889-6.441,15.315-14.543c0.049,0.762,0.041,1.201,0.041,1.201C101.586,92.013,106.296,97.885,104.828,93.627z"/>
<g>
<path fill="#FFFFFF" d="M181.78,24.757c-19.011,19.922-31.836,36.068-38.477,48.438c-6.641,12.37-9.961,25.195-9.961,38.477
c0,6.25,0.894,11.247,2.686,14.99c1.79,3.744,4.231,6.608,7.324,8.594c3.091,1.986,8.382,3.825,15.869,5.518
c8.789,1.889,14.648,4.33,17.578,7.324c2.93,2.995,4.395,6.966,4.395,11.914c0,6.9-2.507,13.265-7.52,19.092
c-5.015,5.826-11.948,11.734-20.801,17.725l-5.762-6.934c11.914-8.594,17.871-17.09,17.871-25.488c0-3.842-0.896-6.43-2.686-7.764
c-1.792-1.335-6.169-2.783-13.135-4.346c-13.672-2.864-22.739-7.568-27.197-14.111c-4.46-6.543-6.689-14.697-6.689-24.463
c0-12.369,3.628-24.886,10.889-37.549c7.259-12.662,19.385-26.969,36.377-42.92v-0.977h-41.699V19.972h60.938V24.757z"/>
</g>
<path fill="#414042" d="M140.737,165.036c0,0,0.119-0.021,0.341-0.062c0.205-0.031,0.506-0.076,0.889-0.134
c0.756-0.103,1.822-0.224,3.106-0.296c1.284-0.073,2.786-0.1,4.403,0.011c1.615,0.108,3.353,0.358,5.05,0.884
c1.69,0.519,3.353,1.383,4.569,2.59c0.617,0.625,1.042,1.254,1.414,1.981c0.345,0.681,0.526,1.364,0.66,1.982
c0.25,1.246,0.214,2.278,0.163,2.985c-0.06,0.71-0.149,1.103-0.149,1.103s-0.006-0.404-0.111-1.093
c-0.113-0.684-0.321-1.664-0.807-2.704c-0.249-0.513-0.543-1.052-0.95-1.523c-0.365-0.429-0.89-0.912-1.432-1.24
c-1.126-0.677-2.512-1.03-3.95-1.123c-2.892-0.186-5.877,0.512-8.023,1.146c-1.08,0.321-1.963,0.642-2.563,0.873
c-0.294,0.119-0.524,0.212-0.682,0.275c-0.138,0.062-0.211,0.096-0.211,0.096L140.737,165.036z"/>
<path fill="#F3BC77" d="M100.123,93.167c0,8.046-6.521,14.566-14.564,14.566s-14.564-6.521-14.564-14.566
c0-8.041,6.521-14.562,14.564-14.562S100.123,85.125,100.123,93.167z"/>
<circle fill="#414042" cx="89.462" cy="91.808" r="10.796"/>
<circle fill="#E6E7E8" cx="95.895" cy="91.037" r="3.433"/>
<path fill="#BCBEC0" d="M54.994,78.604c0,0,0.293-0.033,0.848-0.04c0.553,0,1.375-0.001,2.409,0.169
c1.031,0.166,2.3,0.45,3.651,1.117c1.341,0.652,2.812,1.71,3.862,3.352c0.528,0.81,0.944,1.742,1.228,2.74
c0.299,0.995,0.396,2.09,0.511,3.048c0.233,1.96,0.598,4.017,1.087,6.071c0.496,2.056,1.236,4.094,2.246,5.979
c1.009,1.887,2.367,3.58,4.039,4.912c1.641,1.36,3.609,2.38,5.635,3.07c2.03,0.686,4.109,1.031,6.132,0.922
c2.017-0.1,3.951-0.58,5.659-1.36c0.859-0.381,1.653-0.848,2.393-1.349c0.744-0.494,1.43-1.033,2.041-1.605
c2.478-2.285,3.905-4.854,4.762-6.681c0.404-0.93,0.714-1.676,0.891-2.196c0.179-0.521,0.273-0.8,0.273-0.8s-0.04,0.292-0.115,0.839
c-0.084,0.547-0.216,1.354-0.488,2.359c-0.285,1.002-0.681,2.218-1.336,3.537c-0.646,1.319-1.519,2.768-2.753,4.142
c-1.212,1.385-2.76,2.732-4.66,3.753c-1.883,1.038-4.101,1.797-6.474,1.995c-2.359,0.216-4.876-0.014-7.22-0.802
c-2.348-0.763-4.636-1.887-6.632-3.499c-1.977-1.622-3.572-3.689-4.703-5.889c-1.145-2.202-1.797-4.532-2.247-6.763
c-0.456-2.238-0.615-4.409-0.719-6.463c-0.04-1.048-0.069-1.917-0.221-2.767c-0.149-0.847-0.411-1.639-0.775-2.345
c-0.732-1.412-1.83-2.489-2.966-3.231c-1.14-0.74-2.272-1.219-3.233-1.523C56.188,78.681,54.994,78.604,54.994,78.604z"/>
<g>
<path fill="#414042" d="M106.56,65.945c-10.819-11.334-22.25-22.177-34.4-32.084C56.63,21.054,30.754-0.859,9.35,0.026
c1.075,2.553,1.586,5.454,2.367,8.114c-30.169-22.83,6.715,39.873,12.981,46.839C20.028,39.811,9.855,24.37,4.481,8.646
c0.478,0.283,15.285,10.558,12.291,3.448c-1.806-3.298-3.326-6.747-4.773-10.223c21.855,0.52,42.373,23.379,58.61,36.518
C83.21,48.583,97.71,64.866,111.835,71.757C110.111,69.788,108.354,67.851,106.56,65.945
C104.755,64.054,108.347,67.854,106.56,65.945z M0.968,6.822C0.921,6.806,0.955,6.817,0.968,6.822
C0.959,6.819,0.968,6.822,0.968,6.822z M0.88,6.936h0.002C0.82,6.936,0.922,6.936,0.88,6.936z M13.627,13.804
C13.788,14.113,13.642,13.978,13.627,13.804C13.652,13.853,13.639,13.945,13.627,13.804z M13.974,14.364
C13.835,13.964,14.062,14.464,13.974,14.364C13.966,14.342,13.994,14.387,13.974,14.364z"/>
<path fill="#414042" d="M16.701,11.988C16.743,12.035,16.707,11.994,16.701,11.988L16.701,11.988z"/>
</g>
<path fill="#414042" d="M8.886,23.082c0.909,15.721,5.979,29.726,13.772,43.264C10.124,56.734,3.59,38.24,8.886,23.082z"/>
</svg>

