<?xml version="1.0" encoding="utf-8"?>
<!-- Generator: Adobe Illustrator 16.0.0, SVG Export Plug-In . SVG Version: 6.00 Build 0)  -->
<!DOCTYPE svg PUBLIC "-//W3C//DTD SVG 1.1//EN" "http://www.w3.org/Graphics/SVG/1.1/DTD/svg11.dtd">
<svg version="1.1" id="Layer_1" xmlns="http://www.w3.org/2000/svg" xmlns:xlink="http://www.w3.org/1999/xlink" x="0px" y="0px"
	 width="118.992px" height="40.767px" viewBox="0 0 118.992 40.767" enable-background="new 0 0 118.992 40.767"
	 xml:space="preserve">
<g>
	<path fill="#065755" d="M26.535,1.908c-0.28,0.027-0.619,0.061-0.989,0.096c-0.007,0.001-0.016,0.002-0.022,0.002
		c0.344-0.033,0.709-0.069,1.104-0.106C26.597,1.901,26.565,1.905,26.535,1.908z"/>
	<path fill="#065755" d="M118.709,3.734c0-1.973-13.834-2.453-15.572-2.727c-6.91-1.089-14.15-1.362-21.097-0.486
		c-7.113,0.897-13.753,3.761-20.99,4.084c-0.832,0.037-2.278,0.037-3.109,0c-7.236-0.323-13.876-3.186-20.99-4.084
		c-6.946-0.876-14.187-0.604-21.098,0.486c-1.737,0.274-15.57,0.754-15.57,2.727c0,1.718-0.827,5.845,0.343,7.212
		c0.829,0.97,2.061,0.692,2.736,1.928c1.426,2.609,1.559,6.061,2.091,8.931c1.657,8.941,4.667,15.614,14.037,17.976
		c10.25,2.584,22.504,0.234,28.927-8.847c2.674-3.783,4.316-8.168,5.639-12.576c0.788-2.626,2.114-5.607,5.149-5.673
		c0,0.006,0,0.012,0,0.018c0.097-0.009,0.187-0.005,0.281-0.009c0.099,0.004,0.193,0,0.295,0.01c0-0.006,0-0.013,0-0.02
		c3.036,0.066,4.361,3.047,5.15,5.673c1.322,4.408,2.964,8.794,5.639,12.577c6.424,9.081,18.678,11.431,28.928,8.847
		c9.369-2.363,12.38-9.036,14.037-17.976c0.533-2.871,0.664-6.323,2.091-8.931c0.675-1.237,1.907-0.959,2.735-1.929
		C119.534,9.578,118.709,5.452,118.709,3.734z M50.521,18.411C48.358,31.959,35.993,41.56,22.123,38.432
		C9.959,35.688,8.102,25.809,8.14,14.749C8.176,3.938,16.664,2.865,25.523,2.006c-0.293,0.028-0.556,0.054-0.815,0.079
		c0.288-0.028,0.571-0.055,0.837-0.081c0.33-0.031,0.659-0.063,0.989-0.096c0.139-0.013,0.261-0.025,0.367-0.035
		c-0.081,0.008-0.167,0.016-0.275,0.027c6.319-0.613,13.218,0.749,19.02,3.261C51.245,7.584,51.377,13.046,50.521,18.411z
		 M21.25,2.419c0.024-0.002,0.084-0.008,0.161-0.016C21.333,2.412,21.273,2.417,21.25,2.419z M96.87,38.432
		c-13.871,3.128-26.235-6.473-28.398-20.021c-0.855-5.364-0.724-10.826,4.873-13.25c5.802-2.513,12.701-3.874,19.02-3.262
		c-0.262-0.025-0.439-0.042-0.549-0.053c0.133,0.012,0.354,0.034,0.642,0.062c0.33,0.033,0.66,0.064,0.989,0.096
		c0.18,0.017,0.369,0.036,0.559,0.054c-0.178-0.017-0.343-0.033-0.535-0.052c8.859,0.86,17.346,1.932,17.383,12.743
		C110.89,25.808,109.033,35.688,96.87,38.432z"/>
	<path fill="#065755" d="M93.469,2.005c-0.008,0-0.017-0.001-0.023-0.002c-0.106-0.01-0.203-0.02-0.305-0.029
		C93.248,1.984,93.367,1.996,93.469,2.005z"/>
	<path fill="#065755" d="M93.141,1.974c-0.158-0.015-0.32-0.031-0.488-0.047C92.804,1.941,92.966,1.957,93.141,1.974z"/>
	<path fill="#065755" d="M92.457,1.907c-0.03-0.002-0.062-0.006-0.093-0.009c0.104,0.01,0.189,0.018,0.289,0.028
		C92.588,1.92,92.516,1.913,92.457,1.907z"/>
</g>
</svg>

