<?xml version="1.0" encoding="utf-8"?>
<!-- Generator: Adobe Illustrator 16.0.0, SVG Export Plug-In . SVG Version: 6.00 Build 0)  -->
<!DOCTYPE svg PUBLIC "-//W3C//DTD SVG 1.1//EN" "http://www.w3.org/Graphics/SVG/1.1/DTD/svg11.dtd">
<svg version="1.1" xmlns="http://www.w3.org/2000/svg" xmlns:xlink="http://www.w3.org/1999/xlink" x="0px" y="0px" width="627px"
height="548px" viewBox="0 0 627 548" enable-background="new 0 0 627 548" xml:space="preserve">
<g id="Layer_2">
</g>
<g id="Layer_1">
<path fill="#304468" d="M276.5,277.75c3.969-1.22,8.21-1.787,12.341-2.054c2.438-0.121,4.865-0.224,7.25,0.414
c2.11,0.517,3.896,2.347,6.127,2.223c2.329-0.13,4.56-1.257,6.799-1.833c2.457-0.632,4.996-0.947,7.533-0.818
c4.122,0.279,8.494,0.803,12.283,2.568c-4.255-0.508-8.697-0.584-12.967-0.216c-2.51,0.216-4.915,0.779-7.292,1.6
c-2.166,0.748-4.4,1.761-6.74,1.689c-2.351-0.071-3.98-1.562-6.077-2.366c-2.286-0.877-4.83-0.914-7.247-1.019
C284.511,277.765,280.503,277.778,276.5,277.75z"/>
<path fill="#304468" d="M279.982,242.226c2.652-1.258,5.698-2.507,8.687-2.393c2.719,0.103,5.049,1.581,6.733,3.66
c-0.035-0.043-0.07-0.086-0.105-0.13c3.447,3.387,10.302,3.9,13.728,0.273c3.652-3.866,10.324-6.604,14.846-2.473
c-2.849-0.668-5.74,0.026-8.129,1.701c-1.336,0.937-2.641,2.648-3.43,3.645c-2.03,2.628-4.745,4.157-8.074,4.489
c-3.668,0.365-7.528-0.635-10.447-2.913c-1.711-1.336-2.524-3.662-4.44-4.719C286.666,241.887,282.946,242.428,279.982,242.226z"/>
<path fill="#304468" d="M441.123,78.005c-8.681-10.964-8.471-29.8-19.37-38.076c-10.258-7.788-17.128-13.749-28.47-18.575
c-6.206-2.641-10.598-8.57-15.449-12.959c-6.302-5.702-18.74-1.883-26.677-3.621C334.401,1.106,318.891,1.27,302,0
c0,19.269-1.403,19.868,18.198,23.985c18.553,3.897,29.63,14.683,49.921,14.683c13.137,0,28.711,31.2,29.906,42
c1.689,15.263-1.244,32.142-1.879,47.417c-0.638,15.365-1.232,30.732-1.806,46.1c-0.57,15.282,4.698,31.74,0.891,47.584
c-3.534,14.706-27.426,59.883-46.739,45.489c-7.398-5.514-12.895-14.222-21.907-17.409c-8.018-2.835-15.454,4.45-23.585,4.9
c-4.544,16.122,21.397,7.303,28.324,22.25c4.558,9.835-2.296,20.253-11.968,23.165c-13.219,3.98-17.633-13.165-9.032-13.165
c-6.441,0-12.883,0-19.324,0c9.031,0,3.855,12.194-1.25,14.25c-12.407,0-25.988-10.788-19.75-24.25
c6.867-14.818,32.563-6.2,28-22.25c-6.338-0.388-12.178-5.833-18-5.833c-9.68,0-16.646,8.886-23.063,14.854
c-19.378,18.023-36.599-12.271-45.229-28.214c-15.222-28.118-7.442-76.593-8.697-106.8c-0.702-16.894-5.279-38.698-0.506-55.255
c2.616-9.074,17.388-34.833,28.496-34.833c6.937,0,14.126-0.842,20.914-2.222c9.311-1.894,14.97-11.073,24.835-11.778
C299.995,23.149,300,18.725,300,0c-18.474,1.498-44.813,9.006-62.515,6.045c-13.486-2.255-16.732,10.658-27.657,15.309
c-3.698,0.404-7.298,1.228-10.8,2.472c-3.387,2.723-4.09,9.659-8.377,11.19c-11.784,4.209-14.615,11.167-18.064,22.32
c-4.125,13.34-13.99,22.254-19.631,34.626c-6.734,14.769,2.116,24.391,6.382,37.844c2.748,8.665-3.526,15.186,7.06,23.182
c3.055,2.308,15.025,5.781,11.937,11.679c-8.134,15.529,1.958,21.955,9.608,34.457c-0.754,16.857,0.127,33.29-2.779,50.558
c-3.3,19.614,12.135,24.914,11.285,42.331c-1.111,22.795,5.639,35.689,23.001,51.247c6.598,5.911,11.453,7.198,19.739,9.288
c13.316,3.357,23.254,14.194,36.127,17.488c9.039,2.313,19.166-0.473,27.187-4.763c8.073,4.285,18.252,7.082,27.335,4.763
c12.896-3.292,22.867-14.132,36.21-17.488c10.686-2.688,16.805-5.909,24.716-14.072c17.296-17.849,17.829-28.649,17.927-52.165
c0.042-10.28,6.47-7.639,9.795-16.003c3.371-8.482,2.281-16.481,0.943-25.123c-2.382-15.384-8.997-40.807,1.224-54.17
c3.348-3.212,5.903-6.982,7.666-11.309c1.079-5.86-6.075-13.957-3.787-18.559c4.239-8.525,15.847-8.563,19.923-19.562
c2.929-7.901,1.181-15.23,5.193-24.587C456.077,102.006,450.662,90.055,441.123,78.005
C434.789,70.005,447.456,86.005,441.123,78.005z"/>
<path fill="#304468" d="M324.863,174.827c0,0,34.42-11.374,39.36-12.135c4.942-0.761,4.165,12.259,2.094,13.59
C364.246,177.613,325.662,176.728,324.863,174.827z"/>
<path fill="#304468" d="M276.14,174.295c0,0-34.165-12.115-39.089-12.983c-4.924-0.868-4.429,12.166-2.387,13.542
C236.706,176.229,275.301,176.178,276.14,174.295z"/>
<path fill="#304468" d="M374.366,147.428c0,0-0.22,0.015-0.632,0.042c-0.411,0.033-1.016,0.068-1.806,0.086
c-0.79,0.029-1.731,0.031-2.815,0.006c-1.084-0.022-2.306-0.053-3.629-0.127c-2.649-0.137-5.727-0.342-8.984-0.558
c-1.621-0.089-3.295-0.182-4.997-0.276c-1.69-0.088-3.397-0.145-5.085-0.143c-1.692-0.015-3.358,0.129-4.966,0.317
c-1.548,0.224-3.07,0.445-4.545,0.659c-1.409,0.204-2.761,0.318-3.968,0.517c-0.631,0.077-1.175,0.218-1.757,0.316
c-0.524,0.148-1.101,0.241-1.577,0.416c-0.25,0.077-0.493,0.161-0.747,0.229c-0.234,0.094-0.463,0.187-0.686,0.277
c-0.486,0.152-0.865,0.4-1.293,0.591c-0.438,0.184-0.761,0.457-1.136,0.665c-0.387,0.201-0.678,0.458-0.974,0.678
c-0.617,0.427-1.041,0.858-1.378,1.138c-0.343,0.288-0.525,0.442-0.525,0.442l-0.75-0.276c0,0-0.022-0.244-0.023-0.71
c0.003-0.465-0.017-1.175,0.198-2.038c0.163-0.883,0.513-1.953,1.152-3.088c0.329-0.558,0.694-1.175,1.182-1.724
c0.245-0.282,0.496-0.572,0.753-0.868c0.277-0.268,0.576-0.526,0.882-0.799c0.6-0.583,1.312-0.982,2.035-1.497
c0.745-0.385,1.528-0.878,2.357-1.174c1.652-0.736,3.442-1.151,5.279-1.372c1.838-0.198,3.7-0.081,5.545,0.125
c1.835,0.238,3.666,0.5,5.458,0.798c1.799,0.278,3.567,0.615,5.291,0.975c1.728,0.344,3.396,0.774,5.007,1.18
c3.22,0.808,6.171,1.662,8.704,2.342c2.526,0.702,4.642,1.228,6.118,1.571c0.731,0.173,1.326,0.292,1.735,0.364
c0.405,0.077,0.622,0.118,0.622,0.118L374.366,147.428z"/>
<path fill="#304468" d="M223.433,145.875c0,0,0.218-0.035,0.625-0.1c0.411-0.06,1.008-0.162,1.745-0.314
c1.485-0.302,3.614-0.767,6.16-1.396c2.551-0.608,5.525-1.377,8.767-2.093c1.621-0.36,3.302-0.743,5.039-1.037
c1.732-0.311,3.51-0.597,5.316-0.824c1.8-0.248,3.638-0.458,5.479-0.643c1.85-0.153,3.715-0.217,5.546,0.033
c1.83,0.272,3.607,0.739,5.238,1.521c0.82,0.319,1.588,0.835,2.323,1.241c0.708,0.535,1.409,0.954,1.992,1.554
c0.297,0.282,0.589,0.549,0.858,0.824c0.249,0.304,0.491,0.6,0.728,0.889c0.472,0.563,0.819,1.19,1.133,1.757
c0.606,1.154,0.926,2.232,1.063,3.12c0.191,0.868,0.151,1.577,0.141,2.042c-0.014,0.466-0.044,0.709-0.044,0.709l-0.758,0.255
c0,0-0.178-0.159-0.512-0.457c-0.329-0.289-0.74-0.732-1.345-1.177c-0.29-0.228-0.573-0.493-0.954-0.706
c-0.37-0.218-0.684-0.5-1.116-0.697c-0.422-0.203-0.794-0.461-1.276-0.627c-0.22-0.097-0.446-0.195-0.677-0.297
c-0.252-0.075-0.493-0.165-0.741-0.249c-0.471-0.188-1.044-0.298-1.564-0.461c-0.579-0.115-1.119-0.271-1.747-0.366
c-1.202-0.233-2.549-0.386-3.953-0.63c-1.467-0.255-2.983-0.52-4.523-0.788c-1.602-0.233-3.263-0.425-4.955-0.458
c-1.687-0.05-3.395-0.042-5.087-0.002c-1.704,0.046-3.38,0.091-5.003,0.134c-3.262,0.123-6.344,0.24-8.997,0.302
c-1.325,0.036-2.547,0.032-3.631,0.023c-1.084-0.005-2.025-0.034-2.814-0.086c-0.79-0.041-1.393-0.093-1.802-0.138
c-0.412-0.04-0.631-0.061-0.631-0.061L223.433,145.875z"/>
<polygon fill="#304468" points="499.797,548 313.095,408.587 413.72,339.827 578.582,401.088 627,548 	"/>
<g>
<polygon fill="#304468" points="196.681,548 244.623,548 187.538,405.587 284.125,546.58 289.492,548 334.775,548 
224.162,405.587 388,546.58 388,548 475.977,548 193.296,337.92 34.109,401.088 0,548 172.804,548 165.316,405.587 		"/>
</g>
</g>
</svg>

